<?xml version="1.0" encoding="UTF-8"?>
<svg xmlns="http://www.w3.org/2000/svg" viewBox="0 0 3063.18 2600">
  <defs>
    <style>
      .cls-1 {
        fill: #f4a471;
      }

      .cls-2 {
        fill: #f4aea2;
      }

      .cls-3 {
        fill: #facc88;
      }

      .cls-4 {
        fill: #f5f5f7;
      }

      .cls-5 {
        fill: #e3e3e3;
      }

      .cls-6 {
        fill: #fff;
      }

      .cls-7 {
        fill: #f18a8b;
      }

      .cls-8 {
        fill: #84a0c1;
      }

      .cls-9 {
        fill: #317265;
      }

      .cls-10 {
        fill: #304775;
      }

      .cls-11 {
        fill: #afc0d8;
      }

      .cls-12 {
        fill: #d1696e;
      }

      .cls-13 {
        fill: #d1dbed;
      }

      .cls-14 {
        fill: #24395b;
      }

      .cls-15 {
        fill: #234175;
      }

      .cls-16 {
        fill: #0c0c0c;
      }

      .cls-17 {
        fill: #419786;
      }

      .cls-18 {
        fill: #0d0d0d;
      }

      .cls-19 {
        fill: #446b8c;
      }

      .cls-20 {
        fill: #1d2f59;
      }

      .cls-21 {
        fill: #719bd8;
      }

      .cls-22 {
        fill: #9b5934;
      }

      .cls-23 {
        fill: #6f95d8;
      }

      .cls-24 {
        fill: #5b251e;
      }

      .cls-25 {
        fill: #286055;
      }

      .cls-26 {
        fill: #284b7f;
      }

      .cls-27 {
        fill: #486596;
      }

      .cls-28 {
        fill: #2e4ea4;
      }

      .cls-29 {
        fill: #314a7c;
      }

      .cls-30, .cls-31 {
        fill: #5876b7;
      }

      .cls-32 {
        fill: #6fc183;
      }

      .cls-33 {
        fill: #7b7b7b;
      }

      .cls-34 {
        fill: #7a8db0;
      }

      .cls-35 {
        opacity: .25;
      }

      .cls-36 {
        opacity: .44;
      }

      .cls-37 {
        opacity: .56;
      }

      .cls-38 {
        isolation: isolate;
      }

      .cls-39 {
        opacity: .2;
      }

      .cls-39, .cls-40 {
        mix-blend-mode: multiply;
      }

      .cls-40 {
        opacity: .5;
      }

      .cls-31 {
        opacity: .65;
      }
    </style>
  </defs>
  <g class="cls-38">
    <g id="Layer_2">
      <g id="_02">
        <g>
          <path class="cls-4" d="M2378.32,848.2c-95.77-12.76-187.55-48.13-264.93-106-59.27-44.33-117.27-105.74-151.14-188.74C1871.93,332.11,1822.25-56.37,1140.34,6.87,458.43,70.11-399.61,679.93,205.53,1831.82c0,0,269.48,465.23,1066.74,437.93,786.1-26.92,1262.81-262.91,1403.37-442.92,206.28-169.76,306.7-898.14-297.32-978.63Z"/>
          <ellipse class="cls-34" cx="1416.8" cy="2435.45" rx="1335.75" ry="164.55"/>
          <g>
            <g>
              <g>
                <path class="cls-31" d="M2615.27,238.06l-1374.31-19.35c-69.95-.98-129.18,54.77-136.9,128.87l-80.15,768.91c-5.89,56.51,35.52,105.97,88.87,106.14l1397.21,4.49c52.55,.17,96.92-41.58,103.27-97.18l89.67-784.99c6.43-56.32-34.42-106.14-87.65-106.89Z"/>
                <path class="cls-13" d="M2555.97,156.83l-1374.31-19.35c-69.95-.98-129.18,54.77-136.9,128.87l-80.15,768.91c-5.89,56.51,35.52,105.97,88.87,106.14l1397.21,4.49c52.55,.17,96.92-41.58,103.27-97.18l89.67-784.99c6.43-56.32-34.42-106.14-87.65-106.89Z"/>
                <path class="cls-30" d="M2527.25,218.09l-265.75-2.41c-25.53-.23-47.19,19.92-50.42,46.92l-19.77,165.4c-3.32,27.8,16.93,52.43,43.23,52.56l270.46,1.36c23.93,.12,44.07-19.05,46.66-44.4l17.31-169.43c2.71-26.54-16.68-49.77-41.72-50Z"/>
                <path class="cls-6" d="M2296.75,272.72c-14.53-4.87-30.3,4.72-35.24,21.43-4.94,16.71,2.84,34.2,17.36,39.08,14.53,4.87,30.3-4.72,35.24-21.43,4.94-16.71-2.84-34.2-17.36-39.08Z"/>
                <path class="cls-6" d="M2286.93,337.51c-54.69,.21-55.47,72.94-55.47,72.94l84.07,1.39c15.7-75.07-28.6-74.33-28.6-74.33Z"/>
                <polygon class="cls-5" points="2366.69 287.69 2535.73 289.5 2535.82 280.11 2366.77 278.29 2366.69 287.69"/>
                <polygon class="cls-5" points="2360.46 317.52 2477.07 318.59 2477.15 309.2 2360.53 308.13 2360.46 317.52"/>
                <rect class="cls-5" x="2491.28" y="301.21" width="9.39" height="25.09" transform="translate(2169.68 2808.12) rotate(-89.71)"/>
                <rect class="cls-5" x="2434.28" y="268.05" width="9.39" height="164.53" transform="translate(2076.4 2787.5) rotate(-89.71)"/>
                <rect class="cls-5" x="2395.19" y="327.26" width="9.39" height="96.05" transform="translate(2006.51 2772.27) rotate(-89.57)"/>
                <path class="cls-11" d="M2513.5,621.67l-415.84-2.7h-.01c-4.86-.02-8.83,4.15-8.86,9.34-.03,5.19,3.89,9.42,8.76,9.45l415.84,2.7h.01c4.86,.02,8.83-4.15,8.86-9.34,.03-5.19-3.89-9.42-8.76-9.45Z"/>
                <path class="cls-11" d="M2494,732.85l-406.67-2.66h-.01c-4.76-.02-8.63,4.15-8.66,9.34-.03,5.19,3.8,9.42,8.57,9.45l406.67,2.66h.01c4.76,.02,8.63-4.15,8.66-9.34,.03-5.19-3.8-9.42-8.56-9.45Z"/>
                <path class="cls-11" d="M2486.69,786.29l-406.67-2.66h-.01c-4.76-.02-8.63,4.15-8.66,9.34-.03,5.19,3.8,9.42,8.57,9.45l406.67,2.66h.01c4.76,.02,8.63-4.15,8.66-9.34,.03-5.19-3.8-9.42-8.57-9.45Z"/>
                <path class="cls-11" d="M2330.53,680l-238.92-1.81s0,0,0,0c-2.79-.01-5.08,4.17-5.11,9.35-.03,5.19,2.22,9.41,5.02,9.43l238.92,1.81s0,0,0,0c2.79,.01,5.08-4.17,5.11-9.35,.03-5.19-2.22-9.41-5.02-9.43Z"/>
                <path class="cls-11" d="M2436.84,680.53l-85.42-1.03h0c-1,0-1.83,4.19-1.85,9.37-.02,5.19,.77,9.4,1.77,9.42l85.42,1.03h0c1,0,1.83-4.19,1.85-9.37,.02-5.19-.77-9.4-1.77-9.42Z"/>
              </g>
              <g>
                <path class="cls-6" d="M1552.32,279.09l-394.19-8.72c-5.99-.13-11.34,4.91-11.99,11.27-.64,6.35,3.67,11.61,9.65,11.74l394.21,8.72c5.96,.13,11.32-4.91,11.98-11.26,.65-6.36-3.67-11.61-9.65-11.75Z"/>
                <path class="cls-11" d="M1425.49,318.89l-200.78-4.44c-5.98-.13-11.32,4.91-11.97,11.26-.65,6.36,3.66,11.61,9.64,11.75l200.78,4.44c5.98,.13,11.33-4.9,11.98-11.27,.64-6.35-3.67-11.61-9.66-11.74Z"/>
                <path class="cls-8" d="M1337.3,487.33l-200.77-4.44c-5.99-.13-11.33,4.91-11.99,11.27-.64,6.36,3.67,11.62,9.66,11.75l200.79,4.44c5.98,.13,11.32-4.91,11.96-11.27,.66-6.35-3.67-11.61-9.65-11.74Z"/>
                <path class="cls-6" d="M1462.4,447.5l-136.31-3.01c-5.97-.13-11.36,4.92-11.99,11.26-.64,6.36,3.66,11.61,9.65,11.74l136.31,3.01c5.98,.13,11.35-4.9,12-11.26,.64-6.35-3.67-11.61-9.65-11.74Z"/>
                <path class="cls-8" d="M1871.56,456.55l-136.32-3.01c-5.96-.13-11.34,4.92-11.98,11.26-.65,6.36,3.67,11.61,9.63,11.74l136.31,3.01c5.97,.13,11.36-4.9,12-11.26,.65-6.35-3.68-11.61-9.65-11.74Z"/>
                <path class="cls-6" d="M1812.51,370.03l-136.31-3.01c-5.97-.13-11.34,4.92-11.99,11.28-.64,6.35,3.68,11.61,9.65,11.74l136.31,3.01c5.97,.13,11.35-4.91,11.99-11.26,.65-6.36-3.67-11.62-9.65-11.76Z"/>
                <path class="cls-11" d="M1397.27,614.03l-136.32-3.01c-5.96-.13-11.3,4.92-11.95,11.29-.66,6.36,3.67,11.62,9.65,11.75l136.31,3.01c5.98,.13,11.33-4.91,11.99-11.27,.66-6.37-3.7-11.63-9.67-11.76Z"/>
                <path class="cls-6" d="M1571.1,617.88l-136.32-3.01c-5.97-.13-11.32,4.92-11.95,11.29-.65,6.36,3.66,11.61,9.64,11.75l136.31,3.01c5.97,.13,11.34-4.91,11.99-11.27,.64-6.37-3.69-11.63-9.67-11.76Z"/>
                <path class="cls-6" d="M1379.01,691.85l-136.31-3.01c-5.95-.13-11.34,4.92-11.99,11.26-.63,6.38,3.69,11.62,9.68,11.75l136.29,3.01c5.99,.13,11.34-4.89,11.98-11.27,.66-6.35-3.66-11.61-9.65-11.74Z"/>
                <path class="cls-11" d="M1396.31,734.64l-136.31-3.01c-5.98-.13-11.35,4.9-12,11.26-.63,6.34,3.68,11.61,9.66,11.74l136.31,3.01c5.97,.13,11.35-4.92,12-11.26,.64-6.36-3.68-11.61-9.66-11.74Z"/>
                <path class="cls-6" d="M1627.49,365.95l-329.7-7.29c-5.99-.13-11.37,4.91-12,11.26-.65,6.35,3.66,11.61,9.63,11.74l329.71,7.29c5.96,.13,11.36-4.91,12-11.26,.65-6.35-3.67-11.61-9.65-11.74Z"/>
                <path class="cls-6" d="M1507.9,655.82l-329.71-7.29c-5.96-.13-11.36,4.9-12,11.26-.64,6.34,3.68,11.61,9.65,11.74l329.73,7.29c5.98,.13,11.34-4.92,12.01-11.26,.64-6.36-3.72-11.61-9.68-11.74Z"/>
                <path class="cls-8" d="M1944.51,327.47l-329.71-7.29c-5.98-.13-11.36,4.93-12,11.27-.64,6.36,3.67,11.61,9.65,11.74l329.71,7.29c5.97,.13,11.36-4.9,12-11.26,.65-6.35-3.67-11.62-9.65-11.75Z"/>
                <path class="cls-6" d="M1532.86,534.25l-329.74-7.29c-5.97-.13-11.34,4.92-11.98,11.28-.64,6.35,3.67,11.6,9.63,11.74l329.72,7.29c5.98,.13,11.37-4.9,12.01-11.26,.64-6.36-3.67-11.63-9.65-11.76Z"/>
                <path class="cls-11" d="M1528.53,576.77l-329.73-7.29c-5.96-.13-11.33,4.9-11.97,11.26-.65,6.35,3.66,11.6,9.64,11.73l329.74,7.29c5.97,.13,11.31-4.9,11.95-11.25,.66-6.36-3.66-11.61-9.63-11.74Z"/>
                <path class="cls-8" d="M1473.97,782.97l-329.72-7.29c-5.96-.13-11.33,4.91-11.97,11.27-.65,6.35,3.66,11.6,9.64,11.73l329.74,7.29c5.97,.13,11.31-4.9,11.95-11.25,.66-6.36-3.66-11.62-9.64-11.75Z"/>
                <path class="cls-11" d="M1715.82,498.78l-329.71-7.29c-5.96-.13-11.34,4.91-11.97,11.27-.65,6.35,3.64,11.61,9.63,11.74l329.71,7.29c5.98,.13,11.35-4.91,12-11.26,.64-6.36-3.68-11.62-9.66-11.75Z"/>
                <path class="cls-6" d="M1902.14,585.34l-329.71-7.29c-5.99-.13-11.36,4.91-11.99,11.26s3.66,11.61,9.64,11.74l329.72,7.29c5.98,.13,11.36-4.91,11.99-11.26,.65-6.35-3.67-11.61-9.65-11.74Z"/>
                <path class="cls-8" d="M1661.85,409.31l-368.41-8.15c-5.96-.13-11.35,4.92-11.99,11.27-.65,6.36,3.71,11.61,9.67,11.75l368.4,8.14c5.98,.13,11.32-4.91,11.98-11.27,.64-6.35-3.69-11.62-9.65-11.75Z"/>
                <path class="cls-11" d="M1973.87,626.78l-368.4-8.15c-5.97-.13-11.32,4.92-11.96,11.29-.65,6.36,3.66,11.61,9.65,11.75l368.39,8.14c5.98,.13,11.36-4.91,12.01-11.27,.64-6.37-3.7-11.63-9.68-11.76Z"/>
              </g>
            </g>
            <rect class="cls-8" x="1588.62" y="653.02" width="905.58" height="7.35" transform="translate(1113.59 2590.02) rotate(-82.2)"/>
          </g>
          <path class="cls-30" d="M1069.89,299.43h-206.57c-28.73,0-53.64,23.31-55.66,52.07l-5.46,78.52c-1.99,28.75,19.67,52.06,48.41,52.06h206.57c28.74,0,53.63-23.31,55.63-52.06l5.48-78.52c2.01-28.76-19.67-52.07-48.39-52.07Z"/>
          <g>
            <polygon class="cls-6" points="882.17 387.33 851.62 387.33 853.66 358.07 843.27 358.07 838.53 426.08 848.92 426.08 850.99 396.31 881.54 396.31 879.47 426.08 889.85 426.08 894.59 358.07 884.21 358.07 882.17 387.33"/>
            <polygon class="cls-6" points="903.67 366.74 921.42 366.74 917.28 426.08 927.67 426.08 931.81 366.74 949.65 366.74 950.26 358.07 904.27 358.07 903.67 366.74"/>
            <path class="cls-6" d="M1015,358.07l-11.21,24.82c-6.57,14.73-12.17,28.46-12.17,28.46,0,0-3.45-14.13-7.8-28.46l-7.35-24.82h-12.3l-9.98,68.01h10.29l3.87-26.64c1.78-12.62,3.3-24.22,3.48-26.84,0,0,2.85,11.1,7.31,26.84l7.41,25.33h8.17l11.24-25.33c6.35-14.43,11.78-27.25,11.78-27.25,0,0-.08,12.82,.22,27.25l.56,26.64h10.28l-1.51-68.01h-12.3Z"/>
            <polygon class="cls-6" points="1057.76 358.07 1047.37 358.07 1042.63 426.08 1080.85 426.08 1081.48 416.9 1053.66 416.9 1057.76 358.07"/>
          </g>
          <g>
            <path class="cls-30" d="M1273.02,97.39h-109.42c-18.17,0-33.68,14.75-34.64,32.94l-3.97,76.28c-.94,18.19,13,32.94,31.17,32.94h109.41c18.18,0,33.71-14.75,34.64-32.94l3.98-76.28c.96-18.19-13-32.94-31.17-32.94Z"/>
            <g>
              <path class="cls-6" d="M1144.48,173.37l40.56,17.29,.49-9.35s-26.46-10-31.28-12.43c4.98-2.34,32.58-12.34,32.58-12.34l.49-9.35-42.36,17.3-.46,8.88Z"/>
              <polygon class="cls-6" points="1187.84 210.29 1197.27 210.29 1235.12 134.66 1225.69 134.66 1187.84 210.29"/>
              <path class="cls-6" d="M1235.11,156.54s26.46,10,31.29,12.34c-5.17,2.43-32.58,12.43-32.58,12.43l-.49,9.35,42.27-17.29,.47-8.88-40.46-17.3-.49,9.35Z"/>
            </g>
          </g>
          <path class="cls-27" d="M2707.48,948.05l-333.5-15.43c-36.16-1.67-69.37,26.19-74.21,62.24l-72.11,538.63c-4.83,36.04,20.55,66.6,56.71,68.28l333.51,15.43c36.16,1.67,69.38-26.18,74.21-62.22l72.13-538.63c4.83-36.05-20.58-66.63-56.74-68.3Z"/>
          <g>
            <path class="cls-23" d="M2684.17,920.04l-333.5-15.43c-36.16-1.67-69.37,26.19-74.21,62.24l-72.11,538.63c-4.83,36.04,20.55,66.6,56.71,68.28l333.51,15.43c36.16,1.67,69.38-26.18,74.21-62.22l72.13-538.63c4.83-36.05-20.58-66.63-56.74-68.3Z"/>
            <g class="cls-40">
              <path class="cls-30" d="M2470.33,1105.93l-144.75-6.7c-4.83-.22-9.45,4.71-10.31,11.02-.82,6.33,2.41,11.65,7.26,11.87l144.76,6.7c4.85,.22,9.48-4.73,10.29-11.06,.89-6.3-2.38-11.6-7.24-11.83Z"/>
              <path class="cls-30" d="M2650.41,1114.68l-144.75-6.69c-4.83-.22-9.45,4.71-10.31,11.02-.82,6.33,2.41,11.65,7.26,11.87l144.76,6.7c4.85,.22,9.48-4.73,10.29-11.06,.89-6.3-2.38-11.6-7.24-11.83Z"/>
              <path class="cls-30" d="M2600.6,1427.26l-177.21-8.2c-4.85-.22-9.49,4.72-10.33,11.05-.84,6.3,2.4,11.61,7.24,11.83l177.21,8.2c4.87,.23,9.51-4.72,10.33-11.02,.84-6.33-2.39-11.63-7.25-11.86Z"/>
              <path class="cls-11" d="M2586.41,1479.66l-234.46-10.84c-6.42-.3-12.48,4.58-13.5,10.9-1.01,6.29,3.35,11.65,9.75,11.95l234.47,10.84c6.44,.3,12.5-4.58,13.5-10.87,1.01-6.32-3.33-11.68-9.76-11.98Z"/>
              <path class="cls-30" d="M2441.11,1371.25l-144.76-6.7c-4.87-.22-9.5,4.69-10.33,11.02-.84,6.33,2.4,11.64,7.27,11.87l144.72,6.69c4.85,.22,9.5-4.73,10.31-11.05,.87-6.33-2.37-11.61-7.21-11.83Z"/>
              <path class="cls-11" d="M2465.32,1176.42l-144.72-6.69c-4.87-.23-9.49,4.72-10.33,11.04-.86,6.32,2.4,11.63,7.24,11.85l144.74,6.69c4.86,.22,9.48-4.72,10.31-11.04,.85-6.32-2.39-11.63-7.25-11.86Z"/>
              <path class="cls-30" d="M2636.87,1243.49l-144.73-6.69c-4.86-.22-9.46,4.72-10.32,11.03-.82,6.31,2.42,11.63,7.26,11.86l144.73,6.69c4.85,.22,9.5-4.73,10.34-11.04,.84-6.31-2.42-11.62-7.27-11.84Z"/>
              <path class="cls-30" d="M2448.52,1298.49l-144.72-6.69c-4.87-.23-9.52,4.73-10.36,11.04-.84,6.31,2.41,11.62,7.26,11.84l144.73,6.69c4.86,.22,9.48-4.72,10.34-11.03,.81-6.31-2.4-11.63-7.25-11.86Z"/>
              <path class="cls-11" d="M2635.01,1305.49l-144.72-6.69c-4.87-.23-9.52,4.73-10.36,11.04-.84,6.31,2.41,11.62,7.26,11.84l144.73,6.69c4.86,.22,9.48-4.72,10.34-11.03,.81-6.31-2.4-11.63-7.25-11.86Z"/>
              <path class="cls-11" d="M2662.78,1055.54l-231.32-10.7c-4.87-.23-9.47,4.7-10.3,11.02-.84,6.31,2.4,11.63,7.26,11.86l231.3,10.7c4.84,.22,9.49-4.73,10.32-11.04,.85-6.32-2.45-11.61-7.27-11.84Z"/>
              <g>
                <path class="cls-30" d="M2541.96,985.08l-144.73-6.69c-4.87-.23-9.5,4.71-10.36,11.02-.85,6.33,2.43,11.65,7.29,11.87l144.71,6.69c4.85,.22,9.45-4.73,10.35-11.05,.82-6.31-2.42-11.61-7.27-11.83Z"/>
                <path class="cls-11" d="M2646.83,989.93l-69-3.19c-4.85-.22-9.47,4.71-10.31,11.02-.88,6.33,2.43,11.65,7.28,11.87l68.98,3.19c4.87,.22,9.42-4.73,10.31-11.06,.82-6.31-2.4-11.61-7.26-11.83Z"/>
                <path class="cls-30" d="M2453.35,1233.83l-69-3.19c-4.85-.22-9.47,4.71-10.31,11.02-.88,6.33,2.43,11.65,7.28,11.87l68.98,3.19c4.87,.23,9.42-4.73,10.31-11.06,.82-6.31-2.4-11.61-7.26-11.83Z"/>
                <path class="cls-30" d="M2396.94,1042.13l-69-3.19c-4.85-.22-9.47,4.71-10.31,11.02-.88,6.33,2.43,11.65,7.28,11.87l68.98,3.19c4.87,.22,9.42-4.73,10.31-11.06,.82-6.31-2.4-11.61-7.26-11.83Z"/>
              </g>
              <path class="cls-30" d="M2555.6,1374.93l-69-3.19c-4.86-.22-9.47,4.72-10.3,11.03-.88,6.33,2.38,11.62,7.24,11.85l68.99,3.19c4.85,.22,9.47-4.71,10.34-11.04,.82-6.31-2.43-11.62-7.26-11.84Z"/>
            </g>
          </g>
          <g>
            <path class="cls-1" d="M2835.79,535.18h-221.26c-28.6,0-53.84,23.21-56.34,51.83l-10.45,120.1c-2.49,28.6,18.66,51.84,47.25,51.84h221.24c28.6,0,53.85-23.23,56.34-51.84l10.45-120.1c2.51-28.62-18.66-51.83-47.24-51.83Z"/>
            <path class="cls-1" d="M3015.74,535.18h-221.26c-28.6,0-53.84,23.21-56.34,51.83l-10.45,120.1c-2.49,28.6,18.66,51.84,47.25,51.84h221.24c28.6,0,53.85-23.23,56.34-51.84l10.45-120.1c2.51-28.62-18.66-51.83-47.24-51.83Z"/>
            <g>
              <path class="cls-6" d="M2683.82,598.45l-8.67,95.69-14.72,.05-37.84-71.21-6.46,71.35-14.72,.05,8.67-95.69,14.72-.05,37.85,71.08,6.45-71.22,14.72-.05Z"/>
              <path class="cls-6" d="M2725.02,695.22c-20.41,.06-34.13-15.29-31.97-39.07,2.15-23.78,18-39.09,39.06-39.16,20.28-.06,33.26,14.88,31.24,37.15-.24,2.61-.59,5.09-1.21,7.7l-54.38,.17c-.1,12.51,7.61,20.04,18.46,20.01,9.04-.03,14.5-4.72,17.75-10.64l15.89-.05c-5.2,13.21-17.4,23.83-34.83,23.89Zm-15.99-45.86l39.4-.12c.8-11.69-7.18-19.08-18.16-19.05-9.95,.03-18.6,7.21-21.23,19.17Z"/>
              <path class="cls-6" d="M2797.99,668.05l-16.79,25.75-15.37,.05,26.37-37.33-19.5-38.42,16.66-.05,13.04,25.66,16.79-25.75,15.37-.05-26.38,37.47,19.52,38.29-16.66,.05-13.04-25.66Z"/>
              <path class="cls-6" d="M2846.7,630.65l-8.4,.03,1.16-12.79,8.4-.03,1.71-18.83,14.85-.05-1.71,18.83,17.31-.05-1.16,12.79-17.31,.05-3.8,41.93c-.51,5.64,1.34,7.97,7.54,7.95l9.04-.03-1.18,13.06-11.63,.04c-12.66,.04-20.03-5.57-18.63-20.97l3.8-41.93Z"/>
              <path class="cls-6" d="M2892.57,694.42c-5.3,.02-9.03-4.37-8.52-10.01,.51-5.64,5.04-10.05,10.34-10.07s8.9,4.37,8.39,10.01-5.04,10.05-10.21,10.07Z"/>
              <path class="cls-6" d="M2939.43,617.58l-8.21,90.6c-1.39,15.4-9.67,21.2-22.33,21.24l-7.62,.02,1.2-13.2,5.04-.02c6.2-.02,8.48-2.36,8.99-8l8.21-90.6,14.72-.05Zm-14.84-20.02c.51-5.64,5.04-10.05,10.34-10.07s8.9,4.37,8.39,10.01-5.04,10.05-10.21,10.07-9.03-4.37-8.52-10.01Z"/>
              <path class="cls-6" d="M2977.66,694.43c-17.05,.05-28.09-10.63-27.49-24.38l15.24-.05c-.04,6.19,5.05,11.25,13.19,11.23s13.39-3.89,13.87-9.11c1.34-14.85-40.76-6.19-38.24-33.97,1.1-12.1,12.57-21.89,29.36-21.95s25.9,9.13,25.31,24.25l-14.72,.05c.08-6.6-4.29-11.12-12.3-11.09s-12.32,3.47-12.78,8.56c-1.38,15.26,39.56,6.61,37.86,33.97-1.16,12.79-12.49,22.44-29.28,22.49Z"/>
            </g>
          </g>
          <g>
            <g>
              <g>
                <g>
                  <path class="cls-2" d="M505.5,564.51l58.99,142.31s31.73,1.03,66.24-17.93c41.03-22.55,52.37-35.73,52.37-35.73l-57.06-125.38-120.54,36.73Z"/>
                  <g>
                    <path class="cls-2" d="M649.89,366.75l-175.39,79.8,73.23,160.9c4.11,9.03,13.36,14.61,23.33,14.23l100.34-3.88c8.51-.26,16.37-4.94,20.71-12.24l31.2-52.05c4.13-6.9,4.6-15.34,1.32-22.55l-74.73-164.21Z"/>
                    <path class="cls-7" d="M669.29,496.8c8.13,17.86,29.48,25.62,47.68,17.34l-29.43-64.67c-18.2,8.28-26.37,29.47-18.24,47.33Z"/>
                    <path class="cls-12" d="M623.68,432.52c-.78-1.33-2.52-1.77-3.88-.98-1.36,.79-1.83,2.52-1.04,3.85l37.75,64.16-22.52,10.25c-1.43,.65-2.08,2.32-1.44,3.73,.56,1.22,1.9,1.84,3.18,1.56,.19-.04,.38-.11,.57-.19l25.4-11.56c.73-.33,1.3-.96,1.54-1.72,.25-.76,.16-1.58-.24-2.26l-39.32-66.83Z"/>
                    <ellipse class="cls-2" cx="493.85" cy="569.19" rx="45.83" ry="44.96" transform="translate(-190.42 253.54) rotate(-24.29)"/>
                    <path class="cls-18" d="M530.46,461.47c5.53,7.87,34.48-12.73,30.37-22.22-6.51-15.04-39.55,9.17-30.37,22.22Z"/>
                    <path class="cls-18" d="M640.27,398.51c.89,8.82,33.31,4.77,34.29-4.75,1.55-15.08-35.76-9.89-34.29,4.75Z"/>
                    <path class="cls-7" d="M557.48,506.03c-18.21,8.29-26.38,29.48-18.25,47.35,8.13,17.86,29.48,25.63,47.69,17.35,18.21-8.29,26.38-29.48,18.25-47.35-8.13-17.86-29.48-25.63-47.69-17.34Z"/>
                  </g>
                  <polygon class="cls-7" points="571.34 621.44 683.4 653.77 667.01 617.77 571.34 621.44"/>
                </g>
                <path class="cls-20" d="M580.58,464.96c-3.91,1.67-4.8,8.38-1.99,14.97,2.82,6.59,8.27,10.58,12.18,8.91,3.91-1.67,4.8-8.38,1.99-14.97-2.82-6.59-8.27-10.58-12.18-8.91Z"/>
                <path class="cls-20" d="M651.79,432.56c-3.91,1.67-4.8,8.38-1.99,14.97,2.81,6.59,8.27,10.58,12.18,8.91,3.91-1.67,4.8-8.38,1.99-14.97-2.82-6.59-8.27-10.58-12.18-8.91Z"/>
              </g>
              <g>
                <path class="cls-12" d="M472.79,549.64c-1.51,.46-2.37,2.03-1.93,3.51,.44,1.48,2.02,2.31,3.52,1.86,1.14-.34,27.96-8.09,34.62,14.01,1.94,6.46,2.29,12.28,1.03,17.31-.38,1.51,.55,3.02,2.07,3.37,.43,.1,.87,.1,1.28,0,1.03-.23,1.9-1.02,2.17-2.1,1.51-6.02,1.14-12.83-1.09-20.26-6.61-21.96-30.13-21.18-41.65-17.7Z"/>
                <path class="cls-12" d="M513.25,565.79c-14.53-9.01-25.64-.16-29.48,5.78-.85,1.31-.47,3.05,.85,3.87,1.32,.82,3.07,.42,3.92-.89,.84-1.27,8.53-12.13,21.64-4,.66,.41,1.42,.51,2.13,.35,.72-.16,1.37-.59,1.8-1.25,.85-1.32,.47-3.05-.86-3.86Z"/>
              </g>
            </g>
            <g>
              <g>
                <path class="cls-18" d="M479.13,439.22l-14.29,26.76s-15.76,50.75-15.81,55.02c-.05,4.27,25.56,5.56,25.56,5.56l35.68,8.46,25.35,13.01-6.26-9.24-50.22-99.57Z"/>
                <g>
                  <path class="cls-18" d="M402.87,423.31c-.77,2.12-1.47,4.22-2.1,6.31,.04,1,.07,1.6,.07,1.6l2.03-7.91Z"/>
                  <path class="cls-18" d="M635.2,312.12c10.13-1.18,21.64-26.76,21.64-26.76l-12.76,4.36c-21.45,8.69-62.83-4.61-121.98-5.27s-98.58,56.95-98.58,56.95l3.32-27.94c-54.14,58.84-18.14,88.42-18.14,88.42-8.23,1.74-8.13,21.87-7.93,27.73,.64-2.09,1.33-4.19,2.1-6.31l-2.03,7.91s-.04-.6-.07-1.6c-14.79,48.69,6.74,89.9,6.74,89.9l4.62-15.34c14.46,50.78,40.15,44.18,40.15,44.18l26.84-24.21c-25.25-25.43-7.16-15.13-7.16-15.13,16.9-21.99,6.48-68.82,6.48-68.82,28.27,10.7,78.91-18.41,78.91-18.41l-16.68-9.3c20.46,4.34,122.83-23.89,122.83-23.89l16.13,36.32,10.47-30.71c2.19-65.83-54.9-82.1-54.9-82.1Z"/>
                </g>
              </g>
              <path class="cls-18" d="M482.78,428.68c-1.42-.1-10.81-4.16-10.81-4.16,0,0-7.81,29.05-7.38,30.78,.35,1.43,45.78,58.81,62.04,80.16-12.09-28.61-36.6-94.38-36.6-94.38,0,0-5.81-12.3-7.24-12.4Z"/>
              <path class="cls-18" d="M526.61,535.46c5.25,12.42,8.16,17.84,5.71,7.86-.09-.38-2.24-3.3-5.71-7.86Z"/>
              <path class="cls-18" d="M408.69,401.9s-25.06,31.94-10.95,83.8c0,0,17.17-76.96,12.05-83.59l-1.1-.21Z"/>
            </g>
          </g>
          <g>
            <path class="cls-20" d="M1953.62,1026.94c-.04-69.43,.23-138.88-.49-208.3-.07-6.28-9.68-6.29-9.74,0-.72,69.43-.45,138.87-.49,208.3-.02,34.25-.04,68.51-.06,102.76-.02,34.89-2.39,70.78,.5,105.54,.53,6.32,9.3,6.34,9.83,0,2.81-33.86,.52-68.78,.5-102.76l-.06-105.54Z"/>
            <path class="cls-20" d="M1912.3,823.41c-.91,144.69-3.78,289.87,.04,434.51,.15,5.8,8.85,5.81,9,0,3.83-144.65,.95-289.82,.04-434.51-.04-5.86-9.05-5.87-9.09,0Z"/>
            <path class="cls-21" d="M1936.2,767.24c-3.94,0-7.7,.91-11.14,2.53-3.43-1.62-7.19-2.53-11.14-2.53-16.14,0-29.23,14.97-29.23,33.45s13.09,33.45,29.23,33.45c3.94,0,7.7-.91,11.14-2.53,3.43,1.62,7.19,2.53,11.14,2.53,16.14,0,29.23-14.97,29.23-33.45s-13.09-33.45-29.23-33.45Z"/>
            <g>
              <path class="cls-20" d="M1890.66,786.69c-126.42-63.5-254.57-123.33-383.7-180.48-5.93-2.63-8.47,6.78-2.63,9.39,128.14,57.3,254.96,117.67,380.96,179.97,6.18,3.06,11.6-5.75,5.36-8.89Z"/>
              <path class="cls-20" d="M1918.5,771.47c-126.42-63.5-254.57-123.33-383.7-180.48-5.93-2.63-8.47,6.78-2.62,9.39,128.14,57.3,254.96,117.66,380.96,179.97,6.18,3.06,11.6-5.75,5.36-8.89Z"/>
            </g>
            <path class="cls-16" d="M1908.14,804.18c-.33-8.83,4.2-16.8,9.77-23.27,4.08-4.74-2.68-11.65-6.92-6.93-8.2,9.13-14.3,20.39-12.97,33.04,1.07,10.16,6.69,20.32,16.66,23.77,4.33,1.5,7.85-4.68,4.49-7.72-5.96-5.38-10.7-10.13-11.03-18.89Z"/>
            <path class="cls-21" d="M1464.68,507.34c-114.26-1.98-118.25,133.33-118.25,133.33l238.73,23.05c7.69-17.35-6.21-154.39-120.47-156.37Z"/>
            <path class="cls-16" d="M1466.36,646.21c-65.92-6.36-119.62-8.85-119.94-5.55-.32,3.3,52.87,11.13,118.79,17.5,65.92,6.36,119.62,8.85,119.94,5.55,.32-3.3-52.87-11.13-118.79-17.5Z"/>
            <path class="cls-6" d="M1408.19,542.13c-21.87,15.78-34.34,40.85-34.17,67.81,.04,7.06,11.03,8.25,11.05,1.07,.08-24.28,10.96-45.55,30.33-60.11,5.87-4.41-1.33-13-7.21-8.76Z"/>
          </g>
          <g>
            <path class="cls-19" d="M1984.27,1054.67c-.95-6.58-4.76-12.19-9.89-16.26,0-.21,0-.43-.01-.64,.03-.1,.07-.18,.1-.29,3.72-15.66-5.01-35.32-22.76-36.25-12.66-.66-22.21,7.93-25.68,18.92-22.16,1.16-37.37,21.04-35.6,42.16-4.78,.24-9.49,1.93-13.64,5.56-13.62,11.92-6.34,30.2,1.78,42.84,4.81,7.49,15.21,3.53,16.17-3.31,4.97,2.27,11.31-.75,13.08-5.97,3.82,.45,7.48,1.49,11.04,3.87,7.03,4.69,13.73-1.56,14.05-8.17,.02-.01,.03-.02,.05-.03,1-.42,1.92-.96,2.78-1.6,1.59,.88,3.35,1.36,5.05,1.31,2.54,5.73,12.23,7.56,16.26,1.07,.88-1.42,1.79-3.04,2.7-4.74,3.68,3.72,5.48,8.87,4.78,15.21-1,8.99,14.07,11.03,15.83,2.14,2.4-12.14-2.64-23.13-11.39-30.26,8.79-4.92,16.66-16.13,15.31-25.57Z"/>
            <path class="cls-19" d="M1830.38,1067.68c-.31-11.08-6.5-21.28-19.61-22.75-14.67-1.64-23.45,8.54-26.17,20.74-14.72-4.69-31.65-.77-38.17,14.99-6.21,15.02,4.87,33.5,22,31.73,3.94-.41,6.24-3.24,6.85-6.3,1.66,1.61,3.98,2.64,6.08,2.73,10.53,.46,20.82-.45,31.28-1.62,3.97-.45,8.83-.36,13.34-.88,1.27,4.81,6.22,8.57,11.28,4.92,10.47-7.54,20.37-24.73,10.99-36.71-4.96-6.34-11.4-7.9-17.87-6.86Z"/>
            <path class="cls-19" d="M2064.69,1047.62c-2.35-1.07-8.15-1.04-10.53-2.22,1.13,.08-.44-5.31-.45-5.36-.5-1.57-1.84-3.09-2.9-4.33-2.08-2.43-4.63-4.21-7.42-5.38,4.16-8.81,6.74-18.14,3.21-27.85-3.58-9.86-12.82-17.66-23.77-15.88-29.87,4.85-17.94,47.24-10.61,72.1-4.98,1.14-9.56,4.14-12.83,8.85-8.18,11.77-1.89,26,7.5,34.72,3.48,3.24,7.75,2.18,10.18-.5,10.64,2.98,22.2,4.69,33.07,4.2,3.35,1.57,7.63,1.09,10.23-3.04,10.06-15.97,30.24-43.45,4.32-55.31Z"/>
            <g>
              <path class="cls-21" d="M1726.02,1098.94c-5.57,8.36,16.71,83.62,16.71,83.62l339.62-.02s19.48-80.83,13.91-89.19c-5.57-8.36-364.68-2.76-370.25,5.6Z"/>
              <path class="cls-20" d="M1955.82,1107.27c-1.61,23.07-2.86,46.15-3.29,69.26-.18,9.98,13.06,11,13.41,.9,.8-23.1,1.62-46.2,2.95-69.29,.56-9.77-12.39-10.67-13.07-.88Z"/>
            </g>
          </g>
          <polygon class="cls-14" points="1473.6 2442.36 1537.32 2442.36 1613.4 1389.01 1502.05 1422.46 1473.6 2442.36"/>
          <g>
            <path class="cls-24" d="M700.3,2136.54l-52.89-75.25s-197.65,236.91-200.43,248.06c-2.31,9.24-4.5,38.49-2.1,47.51-.02,.02-.06,.05-.08,.07-2.66,3.22,0,28.95,0,32.17s2.66,6.43,2.66,6.43c0,0-5.32,22.52-2.66,22.52h5.32s5.34,31.15,37.24,32.17c39.77,1.28,39.77-29.38,39.77-29.38,0,0,13.92,4.51,13.92-8.36s10.13-57.12-54.99-58.78c.21-12.81,.83-32.3,2.67-35.98,4.49-8.99,211.57-181.17,211.57-181.17Z"/>
            <path class="cls-24" d="M1068.67,1340.79s2.96,151.26,.15,236.34c11.34,2.86,22.73,5.49,34.16,7.93,3.75-96.42,.39-256.82,.39-256.82l-34.7,12.55Z"/>
            <path class="cls-1" d="M741.65,1283.34c-8.18-.12-17.06,48.82-3.62,62.67,13.45,13.85,393.27,4.3,401.53-1.04,8.26-5.35,13.9-47.57,.53-66.89-13.37-19.31-398.45,5.26-398.45,5.26Z"/>
            <rect class="cls-1" x="637.01" y="1737.97" width="64.17" height="203.47"/>
            <path class="cls-22" d="M657.97,1789.53c172.6,5.57,274.2-121.24,274.2-121.24l-545.63,5.57s98.83,110.1,271.42,115.67Z"/>
            <path class="cls-24" d="M268.23,1643.2s8.35,39.02,27.84,52.96c19.49,13.94,208.79,13.94,453.76,13.94s331.27-22.3,339.62-30.66c8.35-8.36,3.95-43.74,3.95-43.74l-825.17,7.5Z"/>
            <path class="cls-22" d="M630.03,1831.05c-6.43,3.22,0,193.02,0,193.02l77.11-3.22s3.21-183.37,0-189.8c-3.21-6.43-70.69-3.22-77.11,0Z"/>
            <path class="cls-24" d="M723.21,2062.67s0-45.04-3.21-48.25c-3.21-3.22-106.03-3.22-112.46,3.22-6.43,6.43,0,51.47,0,51.47,0,0-292.39,212.32-302.03,225.19-9.64,12.87-9.64,64.34-3.21,64.34s35.34,0,35.34-3.22v-38.6l305.24-167.28s44.98,3.22,54.62,0c0,0,385.57,173.72,385.57,180.15v28.95s35.34,0,38.56-3.22c3.21-3.22,3.21-48.25-3.21-54.69-6.43-6.43-395.21-238.06-395.21-238.06Z"/>
            <g>
              <path class="cls-24" d="M337.65,2355.42c-3.21-3.22-38.56-3.22-38.56-3.22-57.83-3.22-64.26,41.82-64.26,54.69s12.85,12.87,12.85,12.87c0,0,6.43,28.95,38.56,28.95,38.56,0,44.98-32.17,44.98-32.17h6.43c3.21,0-3.21-22.52-3.21-22.52,0,0,3.21-3.22,3.21-6.43s3.21-28.95,0-32.17Z"/>
              <path class="cls-24" d="M289.45,2364.1c-25.33,0-45.95,20.64-45.95,46,0,1.06,.04,2.11,.11,3.15,.15,2.21,1.98,3.9,4.16,3.9,.09,0,.19,0,.29,0,2.3-.16,4.04-2.15,3.89-4.45-.06-.85-.09-1.72-.09-2.59,0-20.75,16.86-37.64,37.59-37.64s37.6,16.89,37.6,37.64c0,2.31,1.87,4.18,4.18,4.18s4.18-1.87,4.18-4.18c0-25.37-20.61-46-45.95-46Z"/>
            </g>
            <g>
              <path class="cls-24" d="M1119.85,2352.2s-35.34,0-38.56,3.22c-3.21,3.22,0,28.95,0,32.17s3.21,6.43,3.21,6.43c0,0-6.43,22.52-3.21,22.52h6.43s6.43,32.17,44.98,32.17c32.13,0,38.56-28.95,38.56-28.95,0,0,12.85,0,12.85-12.87s-6.43-57.91-64.26-54.69Z"/>
              <path class="cls-24" d="M1129.48,2364.1c-25.33,0-45.95,20.64-45.95,46,0,2.31,1.87,4.18,4.18,4.18s4.18-1.87,4.18-4.18c0-20.75,16.86-37.64,37.59-37.64s37.59,16.89,37.59,37.64c0,.87-.03,1.73-.09,2.59-.16,2.3,1.58,4.3,3.88,4.45,.09,0,.19,0,.29,0,2.18,0,4.01-1.69,4.16-3.9,.07-1.04,.11-2.09,.11-3.15,0-25.37-20.61-46-45.95-46Z"/>
            </g>
            <path class="cls-3" d="M1106.16,1523.35c-13.92-8.36-347.98,2.79-350.76-8.36-2.78-11.15,19.49-195.11,19.49-248.06s-30.62-298.23-44.54-334.47c-13.92-36.23,2.78-195.11-16.7-222.98-16.44-23.51-476.03-39.02-509.44-11.15-33.41,27.87-22.27,142.15-19.49,234.13,2.78,91.98,47.32,236.91,61.24,345.62,13.92,108.7-75.16,340.04-5.57,373.49,51.74,24.87,851.84,2.79,851.84,2.79,47.32,0,27.84-122.64,13.92-131Z"/>
            <path class="cls-24" d="M384.93,1353.87c-3.2,.38-5.4,.98-6.8,2.11-1.95,1.57-2.34,4.16-1.66,8.59,1.31,8.61,3.1,17.11,4.18,25.77,5.32,42.75,6.82,85.87,5.89,129.03-.19,8.81-.48,17.73,1.43,26.34,1.91,8.61,6.3,17.02,13.65,21.88,3.59,2.37,7.71,3.8,11.85,4.96,7.89,2.22,17.28,4.65,25.54,4.07,2.6-.19,5.01-1.15,7.63-1.27,4.69-.21,9.58,.55,14.28,.75,18.51,.77,37.04,.61,55.57,.92,30.46,.51,60.92,.91,91.39,1.25,37.09,.41,74.18,.76,111.27,.97l-305.17-227.06c-9.63,.56-19.45,.57-29.03,1.7Z"/>
            <path class="cls-1" d="M884.85,1603.63h-.01l-560.94-3.28c.71-8.75,3.74-30.64,6.9-53.6,9.08-65.73,22.8-165.06,20.95-215.08-1.32-35.61-26.61-161.69-47.48-246.4-20.58-83.48-19.05-132.9-17.44-185.21,.44-14.32,.9-29.12,.9-44.79,0-117.57-30.78-132.17-34.29-133.45-2.89-1.05-6.19,.4-7.24,3.29-1.05,2.89,.33,6.05,3.22,7.1,.27,.13,27.18,13.91,27.18,123.06,0,15.5-.45,30.22-.89,44.45-1.64,53.1-3.18,103.25,17.76,188.22,20.75,84.19,45.87,209.18,47.17,244.15,1.81,49.05-11.83,147.8-20.85,213.14-7.63,55.21-7.91,59.28-6.41,62.29,2.05,4.1,2.48,4.96,94.6,6.09,47.12,.58,112.62,.97,194.66,1.18,46.79,.11,93.74,.16,135.56,.16,83,0,145.74-.15,146.68-.16,3.07,0,5.56-2.51,5.55-5.59,0-3.07-2.5-5.56-5.57-5.56Z"/>
            <g>
              <g>
                <path class="cls-24" d="M910.99,2353.71s-29.26,0-31.92,3.22c-2.66,3.22,0,28.95,0,32.17s2.66,6.43,2.66,6.43c0,0-5.32,22.52-2.66,22.52h5.32s5.34,31.15,37.24,32.17c39.77,1.28,39.77-29.38,39.77-29.38,0,0,13.92,4.51,13.92-8.36s11.14-61.32-64.33-58.77Z"/>
                <path class="cls-24" d="M918.97,2365.61c-21.37,0-38.75,20.64-38.75,46,0,2.31,1.87,4.18,4.18,4.18s4.18-1.87,4.18-4.18c0-20.75,13.64-37.64,30.4-37.64s30.4,16.89,30.4,37.64c0,.88-.02,1.76-.07,2.63-.13,2.31,1.63,4.28,3.94,4.41,.08,0,.16,0,.24,0,2.2,0,4.04-1.72,4.16-3.95,.06-1.02,.09-2.06,.09-3.1,0-25.37-17.39-46-38.75-46Z"/>
              </g>
              <path class="cls-24" d="M696.94,2061.29l-52.89,75.25s226.57,172.18,231.06,181.17c2.78,5.57,2.78,47.38,2.78,47.38,0,0,33.57-6.83,38.97-5.57,5.4,1.25,2.78-39.02,0-50.17-2.78-11.15-219.92-248.06-219.92-248.06Z"/>
            </g>
            <path class="cls-6" d="M741.8,2097.51c-1.54-1.72-4.18-1.85-5.9-.31-1.71,1.55-1.85,4.19-.31,5.9l126.66,140.75c.82,.92,1.96,1.38,3.1,1.38,1,0,2-.35,2.79-1.07,1.71-1.55,1.85-4.19,.31-5.9l-126.66-140.75Z"/>
            <path class="cls-24" d="M501.26,1723.77c-2.45-1.86-5.94-1.37-7.8,1.08-1.86,2.45-1.38,5.95,1.08,7.81,38.3,29.05,79.5,62.46,88.37,72.84-15.37,9.69-100.06,37.07-178.4,59.51-2.96,.85-4.67,3.93-3.82,6.89,.7,2.45,2.93,4.04,5.35,4.04,.51,0,1.02-.07,1.53-.22,.46-.13,46.54-13.34,92.02-27.79,95.75-30.41,95.75-36.14,95.75-41.67,0-3.05,0-11.13-94.07-82.48Z"/>
            <path class="cls-24" d="M351.95,1863.57c-8.56,8.18,32.86,38.84,63.82,38.84s46.49-52.01,46.49-52.01c0,0-88.45-7.74-110.31,13.17Z"/>
          </g>
          <g>
            <path class="cls-26" d="M995.84,1336.14c-14.7-6.49-29.06-12.77-42.98-18.7-90.75-38.8-161.27-64.44-161.27-64.44l-345.19-38.02,623.57,433.8s-222.71,289.87-233.84,303.81c0,0-5.57,78.04,5.57,156.08,10.69,74.95,38.97,100.34,77.95,97.55,38.97-2.79,264.46-284.3,322.92-367.91,58.46-83.62,122.77-163.58,103-264.79-14.5-74.22-197.87-169.94-349.73-237.39Z"/>
            <path class="cls-15" d="M773.4,1987.71s37.3,57.57,68.3,120.95c33.26,68,37.26,80.35,76.23,71.99,19.39-4.16,89.32-49.07,158.97-131.77-27.29-100.83-52.1-202.35-79.87-303.05-64.09,82.47-216.53,232.99-223.63,241.88Z"/>
            <path class="cls-28" d="M1189.67,1397.93c-66.57-52.37-640.28-156.08-640.28-156.08l-150.33,2.79s-.33,2.7-.78,7.64c-.03,.2-.03,.39-.06,.61-.03,.39-.08,.78-.11,1.17-.06,.59-.11,1.23-.17,1.95-.28,3.26-.58,7.16-.86,11.62-.06,.92-.14,1.9-.2,2.9-.03,.11-.03,.25-.03,.39-.2,3.29-.39,6.83-.58,10.62-.72,16.28-1.09,36.79-.14,59.2,.5,11.87,1.36,24.28,2.76,36.88,1.56,14.33,4.59,29.88,8.99,45.71,16.45,59.59,51.89,123.08,99.74,139.05,83.51,27.87,440.54,7.19,453.76,22.3,19.49,22.3,102.28,655.75,114.14,666.14,22.27,19.51,228.27-16.72,233.84-33.45,0,0-80.73-788.78-119.7-819.44Z"/>
            <path class="cls-20" d="M1075.54,2250.82c5.57,16.72,102.4,1.15,102.4,1.15l-13.32-37.38s-94.65,19.51-89.08,36.23Z"/>
            <path class="cls-20" d="M1036.18,1577.08c-4.75-2.21-11.42-2.35-15.71-5.49-6.13-4.48-6.89-13.23-9.18-19.81-3.01-8.62-8.54-15.81-15.71-21.38-17.03-13.23-39.74-16.74-60.46-19.7-29.5-4.22-59.25-6.3-89.03-7.15-62.67-1.79-125.32,1.84-187.98,1.64-29.63-.09-61.82,1.58-90.25-8-25.05-8.44-45.37-26.89-60-48.53-37.84-55.96-36.32-126.23-45.67-190.6-.76-5.22-9.05-5.1-8.28,.18,12.91,88.81,13.51,227.86,126.26,250.76,27.15,5.51,55.94,4.5,83.5,4.49,32.26,0,64.52-.96,96.77-1.58,62.48-1.21,125.98-1.83,187.73,9.19,12.5,2.23,25.51,5.32,36.52,11.92,15.38,9.22,16.38,20.75,23,35.51,4.13,9.22,10.98,10.58,19.48,14.27,11.91,5.18,12.2,11.37,11.98,22.1-.19,9.3-.38,18.6-.57,27.9-.11,5.34,8.17,5.15,8.28-.18,.27-13.16,2.42-27.77,.53-40.81-1.06-7.29-4.58-11.67-11.19-14.75Z"/>
            <path class="cls-20" d="M1047.81,1689.17c27.85,177.77,55.71,355.54,83.56,533.31,2.64-.81,5.3-1.57,7.98-2.3-27.85-177.74-55.7-355.48-83.55-533.22-.82-5.26-8.81-3.03-7.99,2.21Z"/>
          </g>
          <g>
            <path class="cls-32" d="M852.28,756.29c-52.42-24.75-154.5-71.99-167.39-72.66-33.96-1.84-59.52-23.33-90.59-25.11-9.72-.56-19.26,2.51-27.09,8.31-4.7,3.46-9.63,6.91-14.73,10.37-2.31,1.59-5.01-14.41-7.41-12.85-6.49,4.24-16.7,19.51-19.79,30.21-2.78,1.67-5.6,3.35-8.44,5.02-25.92,15.3-54.03,30.35-81.62,45.43-21.05,11.48-36.5,20.68-49.05,29.6-1.06,.75-2.09,1.48-3.12,2.23-2.34,1.7-4.54,3.4-6.68,5.13-1.31,1.06-2.62,2.12-3.87,3.18-16.31,13.66-28.45,28.6-45.85,51.84-33.41,44.6-140.67,309.1-133.62,376.27,7.99,76.12,38.08,83.56,90.97,89.14,52.89,5.57,345.19-30.66,356.33-36.23,.19-.11,121.07-17.17,121.07-17.17,19.29,1.81,37.8-9.7,43.48-28.21,.28-.86,.5-1.76,.72-2.65,3.53-14.49,.45-25.56,.36-66.17,0-1,.06-2.03,.11-3.04,1.31-18.79,15.09-202.3,61.58-308.15,1.53-3.48,2.53-7.16,3.01-10.95,1.17-9.34,2.87-18.7,4.65-27.18,4.01-18.93-5.57-38.1-23.05-46.35Z"/>
            <path class="cls-2" d="M627.22,784.88c-15.65,21.52-34.1,41.47-43.87,66.31-29.09-47.13-43.07-103.49-58.04-156.64-2.78,1.67-5.6,3.35-8.43,5.02,14.86,57.14,30.4,117.43,63.19,166.54,2.34,3.51,8.66,4.4,10.05-.61,8.02-28.93,29.01-50.7,46.21-74.42,4.18-5.74-4.96-11.9-9.1-6.19Z"/>
            <path class="cls-17" d="M686.56,813.6c.13-5.38-8.22-5.38-8.35,0-.78,32.14,5.08,63.58,10.3,95.14,6.04,36.52,8.48,71.49,2.81,108.21-10.01,64.78-22.66,129.66-20.57,195.55,.17,5.37,8.52,5.39,8.35,0-2.19-68.9,12.61-135.86,21.79-203.7,8.97-66.33-15.92-129.23-14.32-195.2Z"/>
          </g>
          <path class="cls-6" d="M628.7,1219.66c-.06,.31,.53,29.77,11.66,26.98,14.61-3.66,23.18-50.11,23.18-50.11,0,0-33.27,15.35-34.84,23.12Z"/>
          <path class="cls-2" d="M546.89,1097.29c-7.65,.56-16.04,1.21-25.02,1.91-50.91,3.94-120.62,9.33-185.43,9.13-3.03-.1-5.57,2.48-5.59,5.55,0,3.08,2.47,5.58,5.55,5.59,11.04,.04,22.22-.09,33.42-.34,54.98-1.24,110.45-5.53,152.9-8.82,8.97-.69,17.34-1.34,24.98-1.9,3.07-.22,5.37-2.9,5.15-5.97-.23-3.07-2.94-5.43-5.96-5.15Z"/>
          <path class="cls-2" d="M423.08,793.97c-13.22-11.05-25.25-16.09-33.02-18.37-2.38-.7-4.95-.26-6.95,1.2-.01,0-.02,.01-.03,.02-2.34,1.7-4.54,3.4-6.68,5.13-1.31,1.06-2.62,2.12-3.87,3.18l4.15-.39c5.26-.53,21.71,3.15,39.28,17.81,17.96,15.02,49.11,53.38,56.01,141.2,.25,3.23,1.78,6.33,4.2,8.42l.86,.78,1.17-.08c3.01-.22,5.32-2.87,5.18-5.96-6.54-94.57-40.59-136.41-60.3-152.93Z"/>
          <g>
            <path class="cls-22" d="M560.53,1356.12s5.57,284.3-5.57,298.23c-11.13,13.94-231.06,8.36-247.76,2.79-16.7-5.57-25.05-289.87-25.05-289.87l-33.41-2.79s15.47,305.77,22.27,320.53c16.7,36.23,297.87,16.72,314.57,2.79,16.7-13.94,11.13-331.68,11.13-331.68h-36.19Z"/>
            <path class="cls-1" d="M220.91,1305.95c-8.35,0-16.7,50.17-2.78,64.11,13.92,13.94,400.87-8.36,409.22-13.94,8.35-5.57,13.92-41.81,0-61.32-13.92-19.51-406.44,11.15-406.44,11.15Z"/>
            <path class="cls-6" d="M625.42,1352.41c-13.86,4.49-318.4,23.48-392.89,16.58-2.29-.25-4.33,1.48-4.54,3.78-.21,2.3,1.48,4.34,3.77,4.55,10.14,.94,26.03,1.36,45.74,1.36,111.02,0,343.23-13.11,352.16-19.07,1.92-1.28,2.44-3.88,1.16-5.8-1.19-1.79-3.54-2.37-5.4-1.39Zm-.39,.23s0,0,0,0c0,0,0,0,0,0Z"/>
          </g>
          <g>
            <path class="cls-2" d="M688.99,697.12c-9.2-18.34-24.01-35.35-24.57-36.67-8.14-19.16-14.33,3.22-19.23-4.67-6.73-10.76-22.73-2.92-22.73-2.92l-48.95-12.25s-59.15-49.41-52.89-36.72c8.24,16.62,21.11,53.52,23.91,72.99,.74,5.1,2.62,9.94,5.62,14.12,12.19,17.09,32.62,37.61,61.82,64.92,34.3,32.08,76.28,86.63,76.28,86.63,0,0,19.25-52.89,29.13-81.89,5.04-14.86-20.24-46.44-24.74-56.08-1.15-2.49-2.36-4.99-3.64-7.47Z"/>
            <path class="cls-6" d="M687.57,694.03c.9,14.07,.9,126.82-.5,154.26,5.57-13.94,22.04-48.61,30.62-89.19,3.25-15.35-18.18-44.73-22.69-54.36-1.15-2.49-7.43-10.71-7.43-10.71Z"/>
          </g>
          <g>
            <path class="cls-1" d="M1520.52,1007.27c-.08,.03-.16,.05-.23,.08-24.16-.31-25.85,37.27-23.66,55.53,3.09,25.79,13.65,57.99,36.86,72.82,2.57,11.68,5.57,20.37,9.08,23.88,5.44,5.45,12.29,8.86,20.22,10.97h73.51c7.92-2.11,14.78-5.52,20.22-10.97,17.9-17.92,22.81-170.58,22.81-170.58h-159.56s.23,7.05,.76,18.28Z"/>
            <path class="cls-13" d="M1525.17,1039.58c-.33-9.04-14.13-9.12-14.09,0,.09,18.76,1.57,37.71,5.5,56.08,2.1,9.81,16.72,5.59,14.92-4.12-3.21-17.29-5.68-34.36-6.33-51.96Z"/>
            <g class="cls-37">
              <path class="cls-6" d="M1651.07,782.15c-11.17-4.06-23.1-6.26-33.54-11.94-10.44-5.68-19.51-16.17-18.85-28.06-3.8,15.76-.3,33.14,9.31,46.19,4.48,6.08,10.15,11.19,14.81,17.13,4.66,5.94,8.4,13.13,7.99,20.68-.41,7.57-4.89,14.28-9.76,20.07-6.96,8.29-15.07,15.62-24.01,21.71-14.48,9.88-31.91,17.29-40.64,32.5-7.02,12.22-6.55,26.68-1.96,39.74,2.31,6.58,5.65,12.8,9.61,18.2,6.15,8.39,12.95,16.31,20.33,23.65-.56-6.78-.92-14.26,3.2-19.67,2.65-3.48,7.02-5.88,8.12-10.11,.67-2.57-.05-5.27-.84-7.81-4.09-13.11-12.86-21.13-.75-32.11,11.6-10.51,27.7-14.33,43.21-16.37s31.46-2.76,46.01-8.52c14.54-5.77,27.81-18.05,29.31-33.64,1.02-10.61-3.49-21.01-9.27-29.96-12.31-19.06-30.97-33.94-52.28-41.69Z"/>
            </g>
          </g>
          <path class="cls-12" d="M682.33,532.1l-42.42,18.99c-1.83,.82-2.65,2.97-1.83,4.8,.6,1.35,1.93,2.15,3.32,2.15,.49,0,1-.1,1.48-.32l42.42-18.99c1.83-.82,2.65-2.97,1.83-4.8-.81-1.83-2.95-2.66-4.79-1.83Z"/>
          <path class="cls-17" d="M431.89,1107.41l57.11-138.87c4.66-184.39-105.93-191.7-105.93-191.7-76.79,38.19-157.49,262.89-179.64,362.09-22.15,99.19-6.99,124.87,26.81,151.71,33.8,26.84,172.5,4.67,172.5,4.67l237.6-29.14c-31.64-69.98,8.33-180.92,8.33-180.92l-216.8,22.17Z"/>
          <path d="M640.35,1266.15c39.46-21.36,8.33-180.92,8.33-180.92-40.02,115.14-8.33,180.92-8.33,180.92Z"/>
          <polygon class="cls-2" points="816.92 1066.56 942.8 1145.92 830.9 970.09 816.92 1066.56"/>
          <g>
            <path class="cls-2" d="M642.12,1105.48s0,0,0,0c.1,0,.19-.01,0,0Z"/>
            <path class="cls-2" d="M642.12,1105.48s0,0,0,0c-.2,.01-.1,0,0,0Z"/>
            <path class="cls-2" d="M872.9,1126.26c-10.01-9.34-20.09-21.38-32.51-27.61-10.42-5.23-22.53-4.05-33.84-2.72-1.5,0-3.06,.05-4.73,.21-52.89,5.01-105.44,9.49-158.69,9.45-.36,0-.68-.06-1.01-.1,0,0,0,0,0,0-.04,0-.27,.23-.31,.23-.4,.33-.37,.35-.62,.46-.61,.27-15.39,19.65-13.39,97.12,.28,10.97,10.42,19,21.17,16.87,12.92-2.56,27.61-4.97,29.58-5.38,12.67-2.65,25.34-5.29,37.99-8.06,13.61-2.98,27.36-8,41.24-8.99,2.5-.18,5.07-.24,7.46,.53,2.24,.72,4.19,2.12,6.31,3.15,11.72,5.7,26.64-.74,38.43-3,8.78-1.68,15.09-5.73,24.45-5.56,6.99,.12,15.16,2.11,22-.24,2.46-.85,4.86-2.15,6.77-3.92,.37-.34,1.05-.97,1.66-1.6,1.7,.06,4.04-.12,4.69-.14,3.51-.12,7.59-.74,10.96-1.7,5.98-1.7,10.51-4.09,14.01-8.6,10.4,9.7,26.06-5.91,15.62-15.64-12.42-11.58-24.83-23.16-37.25-34.75Z"/>
            <polygon class="cls-2" points="642.12 1105.48 642.12 1105.48 642.12 1105.48 642.12 1105.48"/>
          </g>
          <path class="cls-7" d="M844.28,1122.37c-4.41-3.34-10.36,4.3-5.96,7.73,11.78,9.17,21.06,19.91,30.87,31.04,3.73,4.24,11-1.32,7.86-6.07-8.46-12.81-20.62-23.51-32.77-32.7Z"/>
          <path class="cls-7" d="M818.62,1135.61c-4.46-4.67-11.49,2.4-7.07,7.08,6.64,7.04,12.58,14.6,18.96,21.85,3.69,4.19,11.11-1.39,7.82-6.04-5.78-8.18-12.8-15.65-19.71-22.89Z"/>
          <path class="cls-7" d="M815.32,1173.41c-10.58-5.84-18.8-13.08-24.09-24.14-2.69-5.62-10.82-.71-8.3,4.86,5.66,12.49,15.8,23.17,28.56,28.39,5.27,2.16,8.7-6.43,3.84-9.11Z"/>
          <path class="cls-17" d="M525.31,694.55l-20.57,12.58s46.62,168.63,84.5,191.97c0,0,25.06-115.53,54.78-91.61,29.72,23.92,44.22,35.06,44.22,35.06l-146.21-178.02s-14.23,20.94-16.73,30.02Z"/>
          <path class="cls-17" d="M692.59,662.78l-3.92,49.72-.42,130.05s2.98-69.49,33.29-51.98,60.03,33.84,60.03,33.84l-43.13-132.84-45.85-28.79Z"/>
          <g>
            <path class="cls-17" d="M860.28,725.43c-8.32-8.39-105.69,130.38-83.54,163.92,22.14,33.53,158.71,265.32,189.33,276.46,63.66,23.18,134.11-27.91,128.05-94.76-4.86-53.71-225.52-337.22-233.84-345.62Z"/>
            <path class="cls-9" d="M779.56,878.21c11.08,13.98,38.11-36.07,67.5-76.24-13.91-3.11-27.91-5.84-41.91-8.59-1.76,2.32-40.04,66.6-25.59,84.83Z"/>
            <path class="cls-2" d="M855,718.68c-7.43-9.28-14.24-18.87-20.57-28.76-6.55-11.45-12.58-23.21-17.48-35.47-4.44-11.14-7.79-23.78-15.18-33.42-6.2-8.11-15.02-9.45-23.19-13.58-4.08-2.75-7.52-6.41-12.19-8.19-6.76-2.56-13.39,0-20.23-2.73-5.03-2-8.06-4.43-13.9-4.29-2.78,.07-13.96,4.43-15.88,2.78-.97-.84-2.03-1.37-3.14-1.71-3.47-2.58-8.25-3.4-12.13-.97-6.64,4.16-13.28,8.34-19.9,12.52-5.41,3.38-13.42,6.97-17.14,12.53-6.66,9.95-2.18,30.18-1.33,41.33,.29,3.85,2.2,6.5,4.7,7.99-.53,1.06-1.01,2.09-1.46,3.14-.36,.33-.73,.72-1.03,1.22-4.15,6.7-6.04,14.83-3.84,22.12,.12,6.13,3.1,12.08,9.46,15.87,6.22,3.7,13.18,3.06,20.06,3.53,8.24,.53,15.27,3.07,22.25,6.3,12.83,6.96,16.61-.74,27.1,9.53,16.42,16.06,62.23,111.04,71.33,125.35,8.73-10.22,70.43-88.85,60.53-114.62-5.65-6.79-11.28-13.59-16.82-20.5Z"/>
            <g>
              <path class="cls-33" d="M717.29,590.8c-4.67-3.26-10.47-3.59-14.88-.82-6.65,4.16-13.29,8.34-19.9,12.52-1.18,.74-2.49,1.49-3.85,2.26-5.1,2.92-10.88,6.22-14.13,11.08-5.88,8.79-4.08,23.57-2.63,35.44,.34,2.81,.66,5.42,.83,7.65,.26,3.5,1.66,6.48,3.98,8.63-.1,.23-.2,.45-.3,.68-.42,.44-.77,.88-1.06,1.36-4.83,7.81-6.38,16.54-4.25,24.02,.27,7.4,4.19,13.88,10.81,17.83,4.33,2.57,8.89,3.22,12.37,3.49,.07,0,.15,0,.22,0,1.44,0,2.66-1.11,2.77-2.57,.12-1.54-1.03-2.88-2.56-3-4.34-.34-7.32-1.15-9.96-2.72-5.12-3.05-7.99-7.85-8.1-13.53,0-.25-.04-.51-.12-.75-1.82-6.03-.53-13.26,3.55-19.85,.13-.2,.29-.4,.54-.62,.29-.27,.53-.6,.68-.96,.43-1,.88-1.98,1.38-2.98,.66-1.31,.2-2.9-1.06-3.65-1.39-.83-3.1-2.5-3.35-5.8-.18-2.31-.5-5-.86-7.9-1.27-10.38-3.01-24.6,1.72-31.66,2.53-3.78,7.7-6.74,12.27-9.35,1.42-.82,2.79-1.6,4.05-2.38,6.61-4.18,13.25-8.36,19.89-12.52,3.14-1.98,6.81-.78,9,.84,.26,.19,.54,.33,.85,.43,.82,.25,1.52,.63,2.13,1.16,1.16,1,2.92,.88,3.93-.29,1-1.17,.88-2.92-.29-3.93-1.09-.94-2.3-1.64-3.69-2.12Z"/>
              <path class="cls-7" d="M717.93,589.55c-5.09-3.47-11.46-3.77-16.26-.75-6.65,4.16-13.3,8.34-19.89,12.52-1.17,.73-2.46,1.47-3.81,2.24-5.23,2.99-11.15,6.38-14.59,11.51-6.17,9.22-4.33,24.29-2.85,36.39,.34,2.79,.66,5.37,.83,7.58,.26,3.43,1.5,6.42,3.62,8.74-.3,.35-.56,.72-.8,1.1-5,8.07-6.61,17.17-4.45,24.97,.34,7.81,4.51,14.66,11.48,18.8,4.57,2.72,9.34,3.4,12.98,3.68h.32c2.16,.01,3.99-1.68,4.16-3.84,.18-2.3-1.54-4.31-3.84-4.49-4.12-.32-6.91-1.08-9.35-2.53-4.69-2.79-7.32-7.18-7.42-12.36,0-.38-.07-.76-.18-1.13-1.7-5.65-.46-12.47,3.4-18.72,.04-.05,.1-.15,.3-.32,.44-.4,.79-.9,1.02-1.45,.42-.98,.86-1.93,1.35-2.9,.99-1.95,.29-4.36-1.6-5.48-1.61-.96-2.5-2.54-2.67-4.71-.18-2.33-.51-5.04-.87-7.97-1.24-10.16-2.94-24.08,1.5-30.72,2.35-3.5,7.37-6.38,11.82-8.92,1.44-.82,2.82-1.61,4.09-2.4,6.61-4.18,13.25-8.36,19.89-12.51,2.55-1.6,5.59-.58,7.42,.78,.38,.29,.81,.5,1.28,.64,.64,.19,1.17,.48,1.62,.88,1.74,1.5,4.38,1.31,5.89-.43,1.5-1.74,1.31-4.39-.43-5.9-1.18-1.02-2.47-1.78-3.96-2.32Z"/>
            </g>
            <path class="cls-7" d="M782.59,662.16c-6.84,3.34-16.07,9.32-23.15,4.96-4.39-2.7-2.67-1.26,0,2.79,2.74,4.15,.57,18.01,0,19.51-1.19,4.37-8.4,8.87-11.14,5.57-2.78-5.57-8.35-19.27-11.13-25.09-3.36-7.02,.1-12.12,5.57-16.72,3.86-3.25,22.36-23.6,25.05-27.87,2.7-4.28-4.18-5.53-7.23-1.39-4.97,6.76-36.59,29.16-36.05,38.49,.41,7.03,6.24,14.93,9.23,21.24,2.5,5.28,4.84,13.28,9.39,17.27,7.01,6.15,14.46,3.7,19.09-3.14,4.04-5.97,6.76-15.12,5.74-21.89,6.73,.47,13.42-2,20.11-5.27,5.81-2.84,.3-11.29-5.48-8.47Z"/>
            <path class="cls-7" d="M737.78,618.35c-9.44,7.08-18.65,14.44-27.78,21.91-5.87,4.77-10.72,7.61-9.02,15.72,.86,4.01,3.59,10.45,5.57,13.94,1.89,3.34,2.2,5.55,3.01,9.09-.67-1.37-1.92-2.28-3.01-3.51-2.73-3.12-8.35-5.58-11.14-11.15-.89-3.32-13.47-19.43-5.57-27.87,7.77-8.31,19.49-16.72,27.84-22.3,3.62-4.52,2.09-8.01-2.78-5.58-11.14,5.58-30.45,16.53-33.41,33.45-1.42,8.31,1.14,13.24,4.18,20.21,.22,.5,.42,1.03,.61,1.53-1.89-.39-3.79-.67-5.68-.78-4.7-.31-5.85,7.53-1.11,8.31,1.39,.25,9.53,1.09,13.28,3.32,2.94,1.75,5.77,4.38,7.21,7.91,.08-.03,.14-.03,.22-.06,3.48,6.08-.08,12.57-.53,19.54-.39,5.63,7.27,5.63,9.05,1.2,2.31-5.77,3.73-12.38,2.73-18.45,2.48,5.32,6.65,7.55,11.83,7.61-5.99-8.75-13.92-36.37-10.58-41.72,2.56-4.12,9.6-11.09,13.33-14.19,5.87-4.82,11.33-6.3,17.01-11.32,3.65-3.2-1.31-9.76-5.26-6.8Z"/>
          </g>
          <g>
            <path class="cls-2" d="M762.23,2063.58s-25.56,48.1-12.02,77.71c13.54,29.62,59.19,42.47,59.19,42.47l40.35-26.93-52.3-113.19-35.23,19.93Z"/>
            <path class="cls-2" d="M749.54,2070.15c64.93,18.61,91.91,93.04,91.91,93.04l9.64-6.44-53.63-113.1-47.91,26.5Z"/>
            <g>
              <path class="cls-20" d="M764.74,2074.62c9.59-12.9,7.31-26.78,7.31-26.78-71.44-10.96-130.09,37.85-130.09,37.85-1.38,16.99,28.96,112.99,28.96,112.99,0,0,4.38-4.77,23.39,6.47,19.02,11.25,5.61,78.01,5.61,78.01l80.77,141.17s22.9-8.4,36.01-29.56c13.11-21.17-6.59-45.02-13.44-79.79-6.85-34.77,28.41-139.1,28.41-139.1-88.36-34.01-76.53-88.36-66.93-101.26Z"/>
              <path class="cls-6" d="M679.63,2062.94c-23.24,10.76-37.67,22.76-37.67,22.76-1.38,16.99,28.96,112.99,28.96,112.99,0,0,4.38-4.78,23.39,6.47,19.02,11.25,5.61,78.01,5.61,78.01l80.77,141.17s9.73-3.6,20.14-11.95c-7.04-11.43-68.83-112.39-77.47-151.26-9.12-41-50.36-178.13-43.73-198.19Z"/>
              <path class="cls-10" d="M801.81,2161.54l-.33,.48c-13.73,21.69-26.81,112.43-28.61,134.52-1.8,22.09,30.39,18.45,30.39,18.45-6.85-34.77,28.41-139.1,28.41-139.1-11.63-4.48-21.48-9.31-29.87-14.35Z"/>
              <path class="cls-6" d="M803.73,2281.39c-3.94-.02-11.29-.66-14.26-2.28-1.79-.98-4.03-.32-5.01,1.47-.26,.47-.4,.97-.44,1.47-.11,1.41,.59,2.82,1.91,3.55,5.57,3.04,16.53,3.18,17.76,3.18,2.04,0,3.68-1.61,3.71-3.68,0-2.04-1.63-3.7-3.67-3.71Z"/>
              <path class="cls-6" d="M807.94,2260.64c-6.31,.03-13.04-.8-14.4-1.78-1.65-1.19-3.96-.83-5.15,.81-.42,.57-.65,1.22-.7,1.88-.1,1.23,.42,2.48,1.49,3.26,4.15,3.05,15.44,3.23,18.8,3.21,2.04-.01,3.69-1.66,3.67-3.71-.01-2.04-1.67-3.69-3.71-3.67Z"/>
              <path class="cls-6" d="M812.49,2238.19c-5.6-.21-12.59-.92-14.06-1.64-1.77-.87-4.03-.25-4.98,1.48-.27,.5-.43,1.03-.47,1.56-.11,1.3,.47,2.58,1.68,3.31,3.07,1.87,12.31,2.48,17.55,2.68,2.04,.08,3.67-1.47,3.83-3.55,.08-2.04-1.51-3.75-3.55-3.83Z"/>
              <path class="cls-6" d="M817.84,2214.53c-2.45,.48-9.71,1.2-13.81-1.19-1.76-1.03-4.02-.43-5.05,1.33-.29,.49-.44,1.02-.49,1.56-.11,1.37,.55,2.75,1.82,3.49,7.25,4.23,17.79,2.29,18.96,2.05,2-.4,3.28-2.34,2.9-4.34-.4-2-2.34-3.3-4.33-2.91Z"/>
            </g>
          </g>
          <path class="cls-20" d="M1164.62,2214.58l8.96,37.65s124.73-14.49,135.8-34.86c0,0-17.74-29.55-144.76-2.79Z"/>
          <g>
            <path class="cls-2" d="M1129.05,2223.06l12.6,83.66s33.69,42.78,66.22,42.29c32.53-.49,62.65-37.17,62.65-37.17l-15.87-107.75-125.59,18.96Z"/>
            <g>
              <path class="cls-20" d="M1388.03,2370.26c-34.55-7.71-115.76-82.01-115.76-82.01-66.65,67.3-111.59,34.6-119.52,20.61-7.94-13.99-21.54-17.47-21.54-17.47-38.77,61.07-17.73,134.47-17.73,134.47,14.98,8.11,114.97,18.92,114.97,18.92,0,0-2.61-5.93,15.33-18.84,17.94-12.91,73.59,26.25,73.59,26.25l161.58-17.24s1.54-24.36-12.54-44.9c-14.08-20.54-43.81-12.08-78.36-19.79Z"/>
              <path class="cls-6" d="M1306.64,2421.83c-41.16-8.14-183.14-25.51-198.82-39.66,.49,25.63,5.65,43.68,5.65,43.68,14.98,8.11,114.97,18.92,114.97,18.92,0,0-2.61-5.93,15.33-18.84,17.94-12.91,73.59,26.25,73.59,26.25l161.58-17.24s.62-10.37-2.82-23.27c-13.29,1.86-130.45,17.87-169.48,10.15Z"/>
              <path class="cls-10" d="M1247.13,2309.85l.31,.49c14.31,21.31,92.02,69.81,111.49,80.35,19.48,10.54,29.1-20.44,29.1-20.44-34.55-7.71-115.76-82.01-115.76-82.01-8.77,8.86-17.15,15.94-25.14,21.61Z"/>
              <path class="cls-6" d="M1362.37,2354.45c-1.86-.83-4.04,0-4.87,1.87-1.6,3.6-5.15,10.09-7.82,12.15-1.61,1.25-1.91,3.57-.67,5.18,.33,.42,.72,.76,1.17,.99,1.24,.67,2.82,.59,4.01-.33,5.02-3.88,9.55-13.87,10.06-15,.83-1.86,.01-4.02-1.87-4.88Z"/>
              <path class="cls-6" d="M1345.07,2342.18c-1.87-.81-4.04,.05-4.85,1.92-2.51,5.8-5.98,11.63-7.42,12.48-1.75,1.03-2.36,3.29-1.33,5.05,.36,.61,.86,1.08,1.44,1.4,1.08,.59,2.44,.61,3.58-.05,4.46-2.58,9.17-12.85,10.5-15.94,.81-1.87-.03-4.05-1.92-4.86Z"/>
              <path class="cls-6" d="M1326.46,2329.19c-1.83-.89-4.04-.13-4.93,1.71-2.45,5.05-5.91,11.17-7.16,12.22-1.51,1.27-1.85,3.59-.65,5.16,.35,.45,.77,.81,1.23,1.06,1.15,.62,2.55,.6,3.7-.2,2.94-2.06,7.22-10.29,9.51-15.01,.89-1.84,.14-3.95-1.71-4.94Z"/>
              <path class="cls-6" d="M1306.44,2313.68c-1.99-.44-3.96,.81-4.4,2.8-.55,2.44-2.8,9.38-6.65,12.18-1.65,1.2-2.01,3.51-.81,5.16,.34,.46,.76,.82,1.23,1.07,1.21,.66,2.74,.6,3.93-.26,6.78-4.95,9.25-15.38,9.51-16.56,.44-1.99-.82-3.95-2.8-4.4Z"/>
            </g>
          </g>
          <path class="cls-2" d="M1129.26,2223.13s90.16,5.76,91.72,5.76,33.66-24.8,33.66-24.8c-48.18-5.06-125.37,19.04-125.37,19.04Z"/>
          <path class="cls-7" d="M1129.26,2223.13l6.92,46.02s59.44-59.23,118.45-65.06c0,0-38.46-6.56-125.37,19.04Z"/>
          <g>
            <path class="cls-21" d="M1503.74,817.69c-18.09-7.24-394.23-9.07-409.75,0-13.82,8.08-67.78,320.8-73.94,326.97-6.16,6.17-271.11,3.08-283.43,9.25-7.16,3.58-8.01,10.58-7.47,15.84h713.79c11.53-29.95,76.21-345.89,60.81-352.06Z"/>
            <g>
              <path class="cls-29" d="M682.09,1261.35l108.19,2.79c-2.34,47.83-7.1,158.29,4.06,167.23,1.03,.81,9.91,1.59,25.39,2.31l-28.17,1020.6h63.72l72.71-1017.73c138.08,2.4,167.36,3.82,396.16,3.87l72.41,1019.2h63.72l-27.98-1019.29c10.61-.03,21.21-.03,31.76-.06,321.98-.7,650.44-4.29,655.36-11.71,8.71-13.07,3.79-126.65,1.25-175.59h73.91v-80.83l-1512.51-2.79v91.98Z"/>
              <path class="cls-14" d="M1551.54,1266.93h-89.08s8.94,168.21,1.67,173.31c-.03,0-.03,.03-.06,.06,186.47-.4,401.01-1.78,516.73-4.31l72.74,1012.72h63.72l-28.2-1016.39c18.79-1.12,29.46-2.36,30.37-3.73,8.71-13.07,3.79-126.65,1.25-175.59h73.91v-80.83h-643.06v94.77Z"/>
              <path class="cls-20" d="M1969.16,1269.72l-1150.04-10.83c-3.09-.02-5.61,2.48-5.61,5.57s2.47,5.55,5.53,5.57l1150.03,10.83h41.33c2.11,0,3.42-1.69,3.22-3.79-.37-3.81,5.31-7.33-44.46-7.36Z"/>
            </g>
          </g>
          <g>
            <g>
              <path class="cls-32" d="M2483.51,1702c-5.5-9.55-10.91-19.13-13.61-29.76-3.27-12.89-2.3-26.4-2.44-39.7-.51-47.86-15.79-116.5-69.65-131.04-22.12-5.97-48.28,1.79-60.72,21.05-13.23,20.49-6.95,41.94-7.33,64.3-.37,21.94-15.4,40.69-15.34,63.82,0,1.81,.07,3.62,.17,5.43,3.06-1.66,6.8-2.65,10.85-2.65,10.3,0,18.64,6.31,18.64,14.1s-8.35,14.1-18.64,14.1c-2.37,0-4.63-.35-6.71-.96,3.51,12.39,9.02,24.24,16.07,35.02,5.19,7.93,11.22,15.37,15.32,23.92,12.56,26.2,4.79,57.6-7.29,84.02-12.08,26.42-28.43,51.53-33.39,80.17-5.62,32.47,5.06,60.76,20.41,88.63,15.04,27.31,44.84,48.76,67.29,70.44-5.18-5,51.55-63.23,57.06-70.27,15.27-19.49,28.87-40.64,38.54-63.5,9.57-22.61,11.42-45,14.44-69.02,6.11-48.53,6.66-100.57-16.42-145.08-2.28-4.39-4.78-8.7-7.27-13.02Z"/>
              <g>
                <g class="cls-39">
                  <path d="M2483.51,1702c-5.5-9.55-10.91-19.13-13.61-29.76-3.27-12.89-2.3-26.4-2.44-39.7-.51-47.87-15.79-116.5-69.65-131.04-10.7-2.89-22.33-2.54-32.91,.75,19.73,35.47,39.52,73.42,36.96,113.83-1.31,20.69-8.52,40.87-7.81,61.59,.84,24.74,12.8,47.51,23.33,69.92,32.68,69.5,37.41,138.7,6.09,209.79-13.36,30.32-30.08,59.25-44.25,89.16,6.21,5.51,12.3,10.93,17.93,16.37-5.18-5,51.55-63.23,57.06-70.27,15.27-19.49,28.87-40.64,38.54-63.5,9.57-22.61,11.42-45,14.44-69.02,6.11-48.53,6.66-100.57-16.42-145.08-2.28-4.39-4.78-8.7-7.26-13.02Z"/>
                </g>
                <g>
                  <path class="cls-25" d="M2387.4,2010.27c-5.8-25.94-9.15-52.19-8.43-78.79,.73-27.21,8.74-53.71,16.56-79.56,14.8-48.92,21.24-94.41,18.04-145.6-3.15-50.27-9.26-100.93-21.3-149.88-1.17-4.76-8.49-2.74-7.32,2.02,12.46,50.67,18.21,102.87,21.46,154.89,3.31,52.81-7.3,99.64-22.18,149.82-12.85,43.31-15.52,84.68-8.08,129.26,8.53,51.16,26.81,100.1,32.87,151.77,.56,4.81,8.16,4.86,7.59,0-5.35-45.58-19.24-89.29-29.21-133.93Z"/>
                  <g>
                    <path class="cls-25" d="M2309.87,1941.24c.36,1.89,.76,3.77,1.21,5.64,20.65,15.22,42,29.43,64.07,42.54,.32,.54,.87,.9,1.5,.92,.23,.14,.46,.29,.69,.42,1.64,.97,3.14-.8,2.74-2.22,41.89-26.16,82.2-54.72,120.79-85.51,.42-1.92,.79-3.85,1.15-5.78-39.89,32.06-81.64,61.72-125.1,88.79-23.13-13.76-45.48-28.73-67.04-44.81Z"/>
                    <path class="cls-25" d="M2375.66,1906.18c-17.96-13.18-35.95-26.32-53.94-39.47-.54,1.17-1.06,2.35-1.57,3.53,17.87,13.06,35.74,26.12,53.59,39.22,1.98,1.45,3.87-1.85,1.91-3.28Z"/>
                    <path class="cls-25" d="M2379.3,1908.32c42.17-31.25,85.97-60.17,131.2-86.73,.06-1.49,.1-2.98,.14-4.47-45.96,26.89-90.45,56.21-133.26,87.93-1.94,1.44-.05,4.74,1.91,3.28Z"/>
                    <path class="cls-25" d="M2399.49,1824.7c-.68,.51-.88,1.24-.78,1.92-15.01-11.31-30.02-22.62-45.03-33.93-.31,1.33-.65,2.65-1,3.97,14.72,11.1,29.45,22.19,44.17,33.29,1.45,1.09,2.86-.44,2.7-1.9,.51,.36,1.16,.44,1.84-.06,34.14-25.2,68.68-49.85,103.54-74.04-.31-1.32-.59-2.65-.93-3.97-35.2,24.41-70.07,49.28-104.53,74.73Z"/>
                    <path class="cls-25" d="M2409.31,1748.97s-.03,.04-.05,.07c-29.19-14.84-57.23-31.74-83.93-50.62,1.08,2.36,2.23,4.67,3.45,6.96,25.57,17.72,52.29,33.69,80.12,47.75,1.28,.64,2.44-.22,2.77-1.26,.11-.07,.23-.11,.33-.2,21.65-20.25,43.65-40.13,65.92-59.69-.61-1.15-1.2-2.32-1.78-3.48-22.58,19.83-44.88,39.96-66.83,60.49Z"/>
                    <path class="cls-25" d="M2465.44,1603.77c-20.39,20.23-40.77,40.46-61.16,60.69-28.49-12.43-56.98-24.86-85.46-37.3-.4,1.2-.78,2.41-1.14,3.62,28.13,12.28,56.27,24.56,84.4,36.83,.18,1.29,1.77,2.3,3.02,1.32,.04,.02,.07,.03,.11,.05,1.89,.82,3.54-1.41,2.63-2.7,19.39-19.24,38.79-38.49,58.18-57.73-.17-1.59-.36-3.18-.57-4.78Z"/>
                    <path class="cls-25" d="M2394.37,1580.36c-21.92-8.15-43.83-16.3-65.75-24.45,0,1.35,.03,2.71,.07,4.07,21.95,8.16,43.9,16.33,65.86,24.49,1.09,.4,1.86-.21,2.16-1.06,.05-.05,.1-.07,.15-.12,13.94-17.5,28.45-34.52,43.46-51.1-.75-1.05-1.52-2.09-2.3-3.11-15.07,16.64-29.64,33.72-43.64,51.29Z"/>
                  </g>
                </g>
              </g>
            </g>
            <g>
              <path class="cls-32" d="M2275.47,1988.98c-16.32-18.7-39.39-29.77-59.92-43.69-20.53-13.92-40.13-33.39-42.58-58.1-.8-8.06,.31-16.18,.58-24.27,.66-19.68-3.79-39.7-13.96-56.55-7.13-11.82-18.69-18.81-28.42-27.34-.19,.48-.39,.97-.61,1.45-4.08,8.83-12.3,13.72-18.35,10.92-6.05-2.8-7.65-12.24-3.57-21.07,1.96-4.23,4.86-7.54,8.02-9.55-8.12-14.58-13.91-29.86-30.43-37.87-17.62-8.54-40.17-2.58-53.66,11.62-32.87,34.56-13.6,91.46,7.25,126.63,5.79,9.77,12.49,19.21,15.82,30.07,2.74,8.96,3.04,18.36,3.26,27.78,.05,2,.09,4.01,.15,6.01,1.6-.17,3.26-.27,4.96-.27,13.27,0,24.03,5.57,24.03,12.44s-10.76,12.44-24.03,12.44c-.75,0-1.5-.02-2.23-.06,7.17,35.5,27.62,67.29,49.92,95.39,12.86,16.19,24.13,31.72,41.14,43.97,17.2,12.39,36.5,21.79,56.3,29.23,7.14,2.69,74.38,19.99,72.82,25.94,6.77-25.8,19.02-54.71,17.89-81.34-1.15-27.16-5.89-52.57-24.4-73.78Z"/>
              <g class="cls-39">
                <path d="M2266.07,2083.32c-14.34-35.85-34.63-64.87-63.21-90.78-33.11-30.01-61.62-59.49-82.62-99.52-20.69-39.42-39.63-80.09-53-122.63-1.26-3.99-7.49-2.21-6.24,1.78,12.92,41.09,30.91,80.79,50.91,118.89,20.36,38.79,45.23,69.15,77.73,98.28,17.17,15.4,34.77,31.18,47.37,50.73,12.31,19.1,21.51,39.75,28.78,61.27,12.51,37.03,21.75,75.11,38.06,110.77,1.74,3.8,7.26,.39,5.54-3.37-18.48-40.42-26.84-84.28-43.29-125.42Z"/>
                <g>
                  <path d="M2262.69,2079c-43.73-.44-87.37-3.55-130.71-9.22,1.12,1.25,2.24,2.49,3.4,3.71,41.83,5.32,83.92,8.26,126.1,8.74,.34,1.22,2.21,1.84,2.98,.4,.11-.2,.21-.41,.32-.62,.45-.29,.69-.8,.69-1.33,10.3-19.39,19.59-39.25,27.91-59.54-.5-1.56-1.04-3.12-1.62-4.65-8.61,21.33-18.29,42.19-29.08,62.52Z"/>
                  <path d="M2228.19,2020.13c-.79,1.91,2.05,3.48,2.85,1.54,7.23-17.49,14.49-34.97,21.74-52.45-.9-.63-1.8-1.26-2.71-1.88-7.3,17.59-14.61,35.18-21.88,52.79Z"/>
                  <path d="M2226.42,2020.07c-45.32-4.13-90.8-5.76-136.28-4.97,.69,1.07,1.38,2.14,2.09,3.2,44.8-.71,89.6,.94,134.25,5.01,2.09,.19,2-3.06-.06-3.25Z"/>
                  <path d="M2176.08,1972.29c-.23-.54-.69-.99-1.42-1.05-36.44-3.26-72.93-5.92-109.45-8.1,.33,1.11,.72,2.21,1.08,3.31,36.18,2.17,72.32,4.81,108.43,8.03,.72,.06,1.16-.29,1.37-.77,.53,1.13,2.24,1.63,2.82,.19,5.83-14.65,11.66-29.29,17.49-43.94-.84-.81-1.68-1.62-2.49-2.45-5.94,14.93-11.89,29.86-17.83,44.79Z"/>
                  <path d="M2133.97,1920.33s-.04-.02-.06-.03c-25.13-5.23-50.34-10.02-75.61-14.46,.1,1.11,.18,2.22,.25,3.33,24.93,4.39,49.81,9.12,74.6,14.28,.12,.02,.22,0,.33,0,.7,.62,1.93,.73,2.58-.31,14.08-22.63,26.51-46.17,37.32-70.47-.13-2.21-.31-4.41-.57-6.61-11.12,25.65-24.1,50.46-38.83,74.27Z"/>
                  <path d="M2145.97,1791.15c-15.29,21.74-30.57,43.48-45.86,65.22-23.85-5.71-47.71-11.41-71.56-17.12,.56,1.26,1.13,2.51,1.7,3.74,22.69,5.43,45.38,10.86,68.07,16.29-.09,1.35,2.1,2.24,3.11,.8,.02-.03,.04-.05,.06-.08,1.35,.16,2.06-1.28,1.62-2.3,15.1-21.47,30.19-42.94,45.29-64.41-.8-.72-1.62-1.43-2.44-2.13Z"/>
                  <path d="M2070.06,1790.57c-18.01-6.6-36.22-12.6-54.6-18.05-.12,1.09-.22,2.19-.3,3.29,18.31,5.43,36.45,11.41,54.38,17.99,.06,.02,.11,0,.16,.02,.59,.49,1.43,.59,2.04-.19,12.41-15.72,24.82-31.43,37.22-47.15-.57-1.01-1.15-2.01-1.75-3-12.39,15.69-24.77,31.38-37.16,47.07Z"/>
                </g>
              </g>
            </g>
            <path class="cls-17" d="M2407.54,1915.37c-1.95-11.1-4.92-21.98-10.55-32.76-9.65-18.47-23.29-33.76-37.28-48.99-9.11-9.92-17.49-20.09-19.63-33.78-4.98-31.82,7.08-61.15-14.48-89.87-7.57-10.08-17.63-18.13-24.78-28.51-13.46-19.51-15.07-44.6-23.03-66.93-9.17-25.71-27.33-48.11-50.57-62.39-13.77-8.46-30.5-14.24-44.06-3.26-11.78,9.54-18.94,24.03-21.29,38.88-5.56,35.17,17.32,71.08,8.54,105.59-4.27,16.79-15.54,30.79-23.15,46.36-14.35,29.34-5.24,78.57,17.41,101.95,9.7,10.01,20.57,18.94,29.16,29.93,14.53,18.59,10.46,42.48,11.25,65.09,.4,11.34,.8,22.75,3.1,33.86,.81,3.9,1.85,7.65,3.09,11.29,2.69-4.78,9.04-8.14,16.43-8.14,9.84,0,17.81,5.94,17.81,13.27s-7.98,13.27-17.81,13.27c-3.27,0-6.32-.67-8.95-1.81,30.41,53.52,108.21,77.83,150.15,118.49-1.62-16.28,4.18-32.4,11.58-46.98,7.4-14.58,16.51-28.35,22.35-43.63,8.57-22.46,12.88-50.77,9.49-74.64-1.77-12.43-2.69-24.48-4.77-36.28Z"/>
            <g>
              <g>
                <path class="cls-25" d="M2345.7,2055.92c-26.47-47-59.98-85.22-66.61-140.81-3.09-25.92-1.45-52.46-2.62-78.53-1.2-26.85-4.21-53.57-8.72-80.06-8.33-48.93-26.81-94.26-47.34-139.17-2.03-4.45-8.94-1.29-6.9,3.17,21.4,46.82,39.3,93.45,47.97,144.43,8.57,50.34,5.51,100.84,10.1,151.37,4.24,46.58,28.97,81.91,53.5,120.03,29.38,45.66,51.88,95.93,62.05,149.43,.91,4.81,8.4,3.59,7.49-1.22-8.68-45.68-26.18-88.25-48.94-128.66Z"/>
                <g>
                  <path class="cls-25" d="M2327.31,2036.21c-31.75-5.97-63.44-12.31-95.05-18.96,1.42,1.62,2.88,3.21,4.38,4.78,29.83,6.23,59.71,12.2,89.66,17.84,.55,.46,1.34,.66,2.08,.4,.42,.08,.84,.16,1.26,.24,1.86,.35,2.49-1.81,1.6-3.03,27.58-29.91,54.28-60.6,80.28-91.88-.22-1.72-.44-3.44-.64-5.15-27.03,32.63-54.83,64.61-83.57,95.75Z"/>
                  <path class="cls-25" d="M2335.11,1884.86c-18.78,21.98-36.13,45.16-52.28,69.13-19.55-.92-39.28-5.28-58.61-8.16-6.31-.94-12.62-1.88-18.93-2.82,.05,1.29,.12,2.58,.18,3.87,6.11,.91,12.23,1.82,18.34,2.74,19.1,2.85,38.58,7.13,57.9,8.12,.68,.98,2.21,1.38,3.07,.1,16.48-24.57,34.28-48.17,53.39-70.75,11.22-13.25,23.07-25.96,34.27-39.19-.83-.96-1.64-1.92-2.47-2.87-11.35,13.5-23.41,26.43-34.88,39.85Z"/>
                  <path class="cls-25" d="M2339.29,1793.45c-22.27,31.26-45.09,62.13-68.47,92.57-25.62-4.73-51.23-9.47-76.85-14.2,1.11,1.43,2.08,2.91,2.97,4.4,23.95,4.43,47.91,8.85,71.86,13.28,.2,1.42,2.29,2.41,3.44,.91,.08-.1,.16-.21,.23-.31,1.19,0,1.77-1.08,1.61-2.12,22.47-29.28,44.42-58.95,65.87-88.98-.27-1.86-.5-3.71-.67-5.56Z"/>
                  <path class="cls-25" d="M2325.59,1709.97c-.26-.35-.55-.68-.82-1.03-20.87,29.69-40.29,60.37-58.16,91.99-41.9-7.67-83.92-14.66-126.04-20.96,.08,1.29,.19,2.59,.31,3.89,43.36,6.49,86.62,13.7,129.74,21.65,2.41,.44,2.79-3.34,.41-3.78-.16-.03-.31-.06-.47-.08,17.42-30.71,36.3-60.53,56.55-89.41-.52-.75-.97-1.5-1.53-2.25Z"/>
                  <path class="cls-25" d="M2254.12,1714.46c-29.25-2.35-58.33-6.08-87.21-11.1-.51,1.2-1.02,2.39-1.58,3.57,29.35,5.15,58.92,8.95,88.66,11.33,.63,.32,1.39,.31,2.03-.19,.33-.2,.6-.48,.75-.82,12.78-16.12,24.97-32.69,36.6-49.63-.59-1.4-1.14-2.8-1.67-4.23-11.92,17.45-24.45,34.48-37.58,51.07Z"/>
                  <path class="cls-25" d="M2226.23,1636.31c-21.01-4.21-41.93-8.82-62.78-13.78,.25,1.35,.51,2.71,.79,4.06,20.32,4.82,40.71,9.32,61.19,13.42,.78,.96,2.65,1.13,3.37-.36,9.65-19.92,19.7-39.62,30.08-59.16-.84-1.07-1.7-2.13-2.58-3.17-10.37,19.48-20.42,39.14-30.07,58.99Z"/>
                </g>
              </g>
              <g class="cls-39">
                <path d="M2407.54,1915.37c-1.95-11.1-4.92-21.98-10.55-32.76-9.65-18.47-23.29-33.76-37.28-48.99-9.11-9.92-17.49-20.09-19.63-33.78-4.98-31.82,7.08-61.15-14.48-89.87-7.57-10.08-17.63-18.13-24.78-28.51-13.46-19.51-15.07-44.6-23.03-66.93-9.17-25.71-27.33-48.11-50.57-62.39-13.77-8.46-30.5-14.24-44.06-3.26-4.45,3.6-8.24,7.91-11.36,12.68,2.2,3.12,4.34,6.06,6.24,8.74,18.57,26.15,38.45,51.85,50.88,81.68,10.73,25.76,15.51,53.98,13.85,81.84-1.15,19.26-5.31,38.59-2.56,57.68,5.27,36.64,34.21,64.42,58.33,92.48,32.04,37.26,58.33,80.67,68.82,128.7,7.13,32.65,6.31,67.61-3.9,99.22,1.87,1.64,3.69,3.3,5.44,4.99-1.62-16.28,4.18-32.4,11.58-46.98,7.4-14.58,16.52-28.35,22.35-43.63,8.57-22.46,12.88-50.77,9.49-74.64-1.77-12.43-2.69-24.48-4.77-36.28Z"/>
              </g>
            </g>
            <g>
              <path class="cls-17" d="M2667.36,1663.77c-7.62-15.15-22.44-26-38.71-30.7-7.89-2.28-16.43-3.2-24.26-.71-8.89,2.83-15.84,9.67-22.32,16.39-6.47,6.7-12.82,13.52-19.13,20.37,1.15-.12,2.31-.14,3.49-.02,10.63,1.08,18.24,11.78,17.01,23.89-1.23,12.11-10.84,21.05-21.47,19.97-10.63-1.08-18.24-11.78-17.01-23.89,.01-.11,.04-.22,.05-.33-13.92,15.42-27.48,31.68-33.86,51.34-6.41,19.75-4.98,41.04-5.23,61.81-.56,46.33-11.49,95.45-44.58,127.84-9.29,9.09-20.18,16.72-27.75,27.29-6.19,8.64-9.73,18.77-11.72,29.14-1.72,8.92-5.46,16.97-6.72,25.92-2.87,20.33,.27,41.54,8.98,60.13,6.43,13.72,12.27,27.75,18.7,41.24,1.64,3.43,2.8,7.57,1.05,10.94,2.35-4.51,18.18-4.43,22.48-5.49,5.37-1.33,11.03-3.24,16.32-5.01,12.57-4.2,25.88-4.42,38.92-7.39,17.37-3.95,36.33-14.97,49.74-26.48,4.56-3.91,8.47-9.16,11.84-15.13,.82-1.45,1.59-2.95,2.35-4.48-.95-.04-1.91-.1-2.89-.2-13.73-1.4-24.25-8.55-23.5-15.97,.75-7.42,12.5-12.3,26.23-10.9,3.44,.35,6.69,1.06,9.6,2.05,2.29-7.83,4.08-15.44,5.52-21.92,2.54-11.43,4.22-23.37,10.23-33.41,6.04-10.09,15.84-17.21,24.66-24.97,18.54-16.31,34.19-42.9,31.68-68.36-1.9-19.21-12.52-36.53-16.03-55.51-10.17-55.15,43.31-113.83,16.36-167.44Z"/>
              <g>
                <path class="cls-25" d="M2610.6,1703.64c-6.72,43.97-11.54,86.86-26.69,128.96-16.01,44.5-35.64,88.1-56.79,130.36-9.79,19.56-20.53,38.5-29.45,58.48-9.49,21.26-24.16,40.12-35.7,60.3-20.43,35.69-34.81,75.17-35.29,116.63-.05,4.39,6.77,4.52,6.82,.11,.53-45.03,18.07-85.93,40.66-124.12,10.9-18.43,23.17-35.55,31.93-55.18,9.81-21.99,22.07-42.87,32.72-64.46,19.26-39.03,36.51-79.39,51.65-120.19,15.57-41.98,19.98-85.04,26.69-128.96,.66-4.28-5.88-6.26-6.54-1.92Z"/>
                <g>
                  <path class="cls-25" d="M2650.84,1830.13c-24.73,10.16-49.51,20.17-74.38,29.97-23.74-25.21-47.19-50.69-70.51-76.29,0,1.69-.01,3.37-.01,5.06,23.02,25.26,46.18,50.4,69.62,75.28,1.17,1.24,2.9,.11,2.93-1.21,24.42-9.62,48.76-19.45,73.04-29.42-.17-.77-.39-1.53-.53-2.31-.07-.36-.1-.72-.16-1.08Z"/>
                  <path class="cls-25" d="M2599.86,1799.15c19.15-8.67,38.3-17.34,57.44-26,.42-1.44,.86-2.88,1.3-4.32-20.12,9.11-40.25,18.22-60.37,27.33-2.01,.91-.36,3.9,1.63,2.99Z"/>
                  <path class="cls-25" d="M2527.39,1709.83c-.69,.94-1.37,1.89-2.04,2.84,23.71,26.55,46.56,53.88,68.43,82,1.35,1.74,3.82-.62,2.48-2.34-22.02-28.29-45.01-55.78-68.88-82.49Z"/>
                  <path class="cls-25" d="M2643.84,1887.08c-14.26,3.79-28.41,7.96-42.49,12.37-13.99,4.38-28,10.34-42.72,11.63,.07-.44-.04-.91-.4-1.34-18.23-21.35-37.12-42.1-56.61-62.27-.26,1.37-.53,2.74-.81,4.1,18.83,19.56,37.11,39.64,54.75,60.29-.87,1-.51,2.93,1.15,2.83,13.71-.82,26.49-5.82,39.44-10,15.04-4.86,30.21-9.3,45.46-13.46,8.34-2.27,16.72-4.41,25.12-6.45-.15-1.13-.32-2.25-.52-3.37-7.48,1.82-14.93,3.71-22.37,5.69Z"/>
                  <path class="cls-25" d="M2480.46,1905.38c-.62,1.03-1.24,2.06-1.9,3.07,15.75,19.66,31.5,39.32,47.25,58.99,1.38,1.72,3.84-.64,2.48-2.34-15.94-19.9-31.89-39.81-47.83-59.71Z"/>
                  <path class="cls-25" d="M2530.41,1970.35c36.15-8.21,72.65-14.66,109.37-19.45,1.26-1.26,2.5-2.56,3.72-3.91-38.25,4.85-76.27,11.5-113.9,20.05-2.14,.49-1.32,3.8,.82,3.31Z"/>
                  <path class="cls-25" d="M2496.14,2033.4c.81-.51,1.32-1.69,.55-2.68-20.07-25.94-39.77-52.16-59.17-78.61-.77,.87-1.5,1.78-2.22,2.69,19.32,26.33,38.93,52.43,58.91,78.26,.55,.71,1.27,.72,1.85,.39-1.21,.98-.35,3.41,1.51,2.98,34.1-7.9,68.33-15.21,102.66-22,.07-.32,.15-.66,.22-.98,.19-.88,.38-1.76,.57-2.65-34.87,6.88-69.64,14.28-104.27,22.31-.25,.06-.44,.16-.61,.28Z"/>
                  <path class="cls-25" d="M2459.19,2093.2c-15-22.81-30.01-45.62-45.01-68.43-.04,2.1-.01,4.19,.07,6.29,14.32,21.77,28.63,43.53,42.95,65.3,.76,1.15,2.23,.93,2.91,.15,33.52-4.61,67.04-9.23,100.57-13.84,2.95-.41,5.91-.81,8.86-1.22,.59-.48,1.22-.96,1.78-1.45,.93-.8,1.82-1.69,2.7-2.6-4.72,.65-9.44,1.3-14.16,1.95-33.55,4.62-67.11,9.24-100.66,13.86Z"/>
                </g>
              </g>
              <g class="cls-39">
                <path d="M2667.36,1663.77c-7.62-15.15-22.44-26-38.71-30.7-2.97-.86-6.03-1.52-9.11-1.89,9.92,39.82,12.2,81.56-3.08,119.07-19.86,48.76-67.17,84.98-76.85,136.74-6.88,36.84,6.82,75.82-3.34,111.89-6.54,23.23-22.27,42.57-37.61,61.18-16.94,20.56-33.89,41.11-50.83,61.67,5.65-1.91,15.3-2.07,18.52-2.86,5.37-1.33,11.03-3.24,16.32-5.01,12.57-4.2,25.88-4.42,38.92-7.39,17.37-3.95,36.33-14.97,49.74-26.48,4.56-3.91,8.47-9.16,11.84-15.13,.82-1.45,1.59-2.95,2.35-4.48-.95-.04-1.91-.1-2.89-.2-13.73-1.4-24.25-8.55-23.5-15.97,.75-7.42,12.5-12.3,26.23-10.9,3.44,.35,6.69,1.06,9.6,2.05,2.29-7.83,4.08-15.44,5.52-21.91,2.54-11.43,4.22-23.37,10.23-33.41,6.04-10.09,15.84-17.21,24.66-24.97,18.54-16.31,34.19-42.9,31.68-68.36-1.9-19.21-12.52-36.53-16.03-55.51-10.17-55.15,43.31-113.83,16.36-167.44Z"/>
              </g>
            </g>
            <g class="cls-39">
              <path d="M2127.4,1922.87c-2.24-21.04-3.61-42.97-13.97-61.41-8.67-15.44-22.88-26.97-33.01-41.49-19.78-28.36-22.17-64.87-23.49-99.53-9.18,2.3-17.83,7.22-24.36,14.08-32.87,34.56-13.6,91.46,7.25,126.63,5.79,9.77,12.49,19.21,15.82,30.07,2.74,8.96,3.04,18.36,3.26,27.78,.05,2.14,.1,4.29,.17,6.43,2.42-.57,5.06-.9,7.83-.9,11.71,0,21.21,5.64,21.21,12.6s-9.5,12.6-21.21,12.6c-1.78,0-3.5-.14-5.15-.39,7.13,35.59,27.61,67.46,49.96,95.61,12.86,16.19,24.13,31.72,41.14,43.97,17.2,12.39,36.5,21.79,56.3,29.23,7.14,2.69,74.38,19.99,72.82,25.94,1.7-6.47,3.74-13.14,5.83-19.92-23.61-15.54-48.64-29.23-71.84-45.43-54.39-37.98-81.61-90.6-88.57-155.87Z"/>
            </g>
            <g>
              <path class="cls-3" d="M2454.11,2102.78h-256.96c-.93,20.79-3.72,124.14,26.87,216.82,26.67,80.78,51.83,112.47,70.18,127.15,5.08,4.06,11.31,6.35,17.79,6.51v.03h130.76v-.03c6.48-.16,12.71-2.45,17.79-6.51,18.35-14.68,43.51-46.37,70.18-127.15,30.6-92.69,27.8-196.03,26.87-216.82h-103.48Z"/>
              <g class="cls-35">
                <path class="cls-6" d="M2205.09,2239.23c2.74,17.47,6.34,35.53,11.04,53.53,112.27-47.39,226.36-90.4,341.22-131.34,1.22-27.22,.69-47.93,.32-57.13-118.65,42.11-236.54,86.29-352.57,134.94Z"/>
                <path class="cls-6" d="M2238.4,2358.99c102.54-42.66,206.54-81.82,311.18-119.24,1.41-8.93,2.59-17.7,3.59-26.24-108.67,38.74-216.67,79.29-323.12,123.55,2.81,7.82,5.6,15.13,8.35,21.93Z"/>
                <path class="cls-6" d="M2288.44,2441.73c76.34-32.11,153.51-62.22,231.19-91.04,3.66-9.47,7.36-19.79,11.09-31.09,3.68-11.14,6.86-22.44,9.64-33.74-95.61,34.95-190.56,71.61-284.26,111.28,11.84,22.01,22.82,35.67,32.33,44.59Z"/>
              </g>
              <g class="cls-36">
                <path class="cls-1" d="M2480.68,2102.78c2.67,65.33-2.05,130.86-17.36,194.31-13.27,54.97-34.82,108.33-64.74,156.2h44.17v-.03c6.48-.16,12.71-2.45,17.79-6.51,18.35-14.68,43.51-46.37,70.18-127.15,30.6-92.69,27.8-196.03,26.87-216.82h-76.92Z"/>
              </g>
              <rect class="cls-1" x="2180.71" y="2091.28" width="389.86" height="49.97" rx="3.17" ry="3.17"/>
            </g>
          </g>
        </g>
      </g>
    </g>
  </g>
</svg>
