<svg
  width="388"
  height="479"
  viewBox="0 0 388 479"
  fill="none"
  xmlns="http://www.w3.org/2000/svg"
>
  <path
    fill-rule="evenodd"
    clip-rule="evenodd"
    d="M185.488 368.575C286.999 368.575 369.29 286.284 369.29 184.773C369.29 83.2615 286.999 0.97052 185.488 0.97052C83.9769 0.97052 1.68591 83.2615 1.68591 184.773C1.68591 286.284 83.9769 368.575 185.488 368.575ZM185.488 339.593C270.993 339.593 340.309 270.278 340.309 184.773C340.309 99.2674 270.993 29.9518 185.488 29.9518C99.9828 29.9518 30.6671 99.2674 30.6671 184.773C30.6671 270.278 99.9828 339.593 185.488 339.593Z"
    fill="url(#paint0_linear_3_52)"
  />
  <path
    d="M183.776 273.828L163.806 256.779C156.594 266.482 133.018 276.739 121.369 268.838C103.56 256.76 119.427 227.67 128.858 215.611C136.624 218.799 154.653 227.171 164.638 235.155C174.623 243.14 191.265 260.66 198.338 268.423C220.305 289.048 243.271 292.541 264.073 288.799C292.781 282.145 304.846 248.878 293.197 223.096C284.799 204.51 268.65 191.076 256.585 181.512C244.519 171.948 215.812 157.809 207.907 152.819C201.583 148.827 189.739 137.572 184.608 132.443C174.207 123.711 129.912 65.493 88.0848 101.671C53.4696 131.611 80.8733 173.75 98.9021 191.076L115.544 170.285L104.727 157.809C98.7634 150.463 90.914 133.108 107.223 122.463C123.532 111.818 143.142 124.681 150.908 132.443C162.141 142.423 177.951 159.057 197.506 175.69C202.082 179.583 225.797 191.076 232.038 194.403C238.278 197.73 250.76 206.878 255.336 211.868C259.913 216.858 283.212 238.482 265.738 257.195C251.758 272.165 226.074 258.997 214.98 250.541C208.656 245.551 188.353 223.096 177.119 213.532C160.061 201.057 123.699 182.178 121.369 183.176C119.039 184.174 107.916 202.72 102.647 211.868C91.9679 228.225 77.434 266.759 104.727 290.046C132.02 313.333 168.798 288.937 183.776 273.828Z"
    fill="url(#paint1_linear_3_52)"
  />
  <path
    d="M201.062 133.067L183.2 114.333C198.847 99.4845 230.14 68.9553 265.864 94.35C294.134 114.445 278.88 155.27 267.526 173.448L243.848 161.375C251.602 150.829 263.455 126.905 248.833 115.582C234.211 104.258 210.893 122.52 201.062 133.067Z"
    fill="url(#paint2_linear_3_52)"
  />
  <circle
    cx="179.577"
    cy="67.6286"
    r="20.4013"
    fill="url(#paint3_linear_3_52)"
  />
  <ellipse
    cx="155.553"
    cy="171.542"
    rx="15.444"
    ry="15.2533"
    fill="url(#paint4_linear_3_52)"
  />
  <circle
    cx="213.897"
    cy="216.348"
    r="15.444"
    fill="url(#paint5_linear_3_52)"
  />
  <circle
    cx="194.068"
    cy="309.012"
    r="20.4013"
    fill="url(#paint6_linear_3_52)"
  />
  <circle
    cx="64.7964"
    cy="204.908"
    r="20.4013"
    fill="url(#paint7_linear_3_52)"
  />
  <circle
    cx="306.18"
    cy="172.495"
    r="20.4013"
    fill="url(#paint8_linear_3_52)"
  />
  <path
    d="M1.29309 477.37V419.661H16.5082V477.37H1.29309Z"
    fill="white"
  />
  <path
    d="M24.6117 439.658V434.659C24.6117 424.298 29.6109 419.118 39.6095 419.118C56.7809 419.118 67.0692 420.096 70.4745 422.052V431.616H44.2827C43.3408 431.616 42.5438 431.688 41.8917 431.833C41.3121 431.978 40.8774 432.232 40.5876 432.594C40.2978 432.956 40.0804 433.355 39.9355 433.79C39.8631 434.224 39.8268 434.84 39.8268 435.637V438.245C39.8268 439.912 40.1891 440.962 40.9136 441.397C41.6382 441.759 42.7612 441.941 44.2827 441.941H57.9763C60.6571 441.941 62.9756 442.339 64.9318 443.136C66.9605 443.861 68.5545 444.911 69.7137 446.288C70.9454 447.664 71.8511 449.258 72.4307 451.07C73.0104 452.809 73.3002 454.729 73.3002 456.83V462.807C73.3002 471.501 69.6413 476.465 62.3235 477.696C61.3092 477.841 60.2586 477.914 59.1718 477.914C40.9136 477.914 30.1906 476.863 27.0026 474.762V465.307H54.2812C56.8171 465.307 58.085 464.075 58.085 461.612V458.895C58.085 458.025 57.9763 457.337 57.759 456.83C57.6141 456.323 57.2518 455.924 56.6722 455.634C56.0926 455.344 55.2956 455.2 54.2812 455.2H40.8049C35.5159 455.2 31.4947 453.968 28.7415 451.504C25.9883 449.041 24.6117 445.092 24.6117 439.658Z"
    fill="white"
  />
  <path
    d="M80.5613 449.331C80.5613 443.39 80.996 438.499 81.8655 434.659C82.7349 430.819 84.2564 427.74 86.43 425.421C88.6036 423.103 91.2844 421.473 94.4723 420.531C97.7327 419.589 101.863 419.118 106.862 419.118C116.788 419.118 123.635 421.291 127.402 425.639C131.242 429.986 133.162 437.883 133.162 449.331C133.162 460.126 131.279 467.589 127.511 471.719C123.816 475.849 116.933 477.914 106.862 477.914C102.877 477.914 99.3991 477.588 96.4286 476.935C93.5304 476.211 91.0308 475.16 88.9297 473.784C86.901 472.407 85.2708 470.596 84.0391 468.35C82.8074 466.031 81.9017 463.35 81.3221 460.307C80.8149 457.192 80.5613 453.533 80.5613 449.331ZM95.7765 449.331C95.7765 453.026 95.9576 455.96 96.3199 458.134C96.6821 460.307 97.3342 461.974 98.2761 463.133C99.2905 464.22 100.413 464.908 101.645 465.198C102.877 465.488 104.616 465.633 106.862 465.633C108.818 465.633 110.303 465.56 111.318 465.415C112.404 465.27 113.419 464.908 114.361 464.329C115.375 463.749 116.1 462.843 116.534 461.612C117.041 460.38 117.404 458.822 117.621 456.938C117.838 454.982 117.947 452.446 117.947 449.331C117.947 445.998 117.838 443.317 117.621 441.289C117.476 439.187 117.186 437.448 116.752 436.072C116.317 434.623 115.629 433.608 114.687 433.029C113.745 432.377 112.694 431.942 111.535 431.725C110.376 431.435 108.818 431.29 106.862 431.29C105.268 431.29 103.964 431.362 102.949 431.507C101.935 431.652 100.957 431.978 100.015 432.485C99.0731 432.92 98.3486 433.536 97.8414 434.333C97.4067 435.058 97.0082 436.108 96.6459 437.485C96.2837 438.861 96.0301 440.492 95.8852 442.375C95.8127 444.259 95.7765 446.578 95.7765 449.331Z"
    fill="white"
  />
  <path
    d="M142.245 477.37V419.661H154.417L157.46 425.856C157.677 425.711 157.967 425.494 158.329 425.204C159.923 424.117 161.119 423.32 161.916 422.813C162.785 422.233 163.944 421.581 165.393 420.857C166.915 420.132 168.473 419.625 170.067 419.335C171.661 418.973 173.436 418.792 175.392 418.792C182.855 418.792 187.854 421.291 190.39 426.291C197.2 421.291 204.12 418.792 211.148 418.792C222.595 418.792 228.319 425.566 228.319 439.115V477.37H213.104V438.898C213.104 436.289 212.524 434.333 211.365 433.029C210.278 431.725 208.72 431.073 206.692 431.073C205.75 431.073 204.844 431.109 203.975 431.181C203.105 431.254 202.236 431.362 201.366 431.507C200.569 431.652 199.772 431.833 198.975 432.051C198.251 432.268 197.526 432.558 196.802 432.92C196.077 433.21 195.353 433.608 194.628 434.116C193.976 434.55 193.288 435.058 192.563 435.637C192.563 435.71 192.563 435.927 192.563 436.289C192.636 436.579 192.672 436.905 192.672 437.267C192.672 437.63 192.672 437.992 192.672 438.354C192.672 438.716 192.672 438.934 192.672 439.006V477.37H177.457V438.898C177.457 437.593 177.312 436.434 177.022 435.42C176.732 434.405 176.298 433.608 175.718 433.029C175.138 432.377 174.45 431.906 173.653 431.616C172.856 431.254 171.987 431.073 171.045 431.073C169.089 431.073 167.35 431.254 165.828 431.616C164.307 431.978 162.93 432.522 161.698 433.246C160.467 433.898 159.054 434.804 157.46 435.963V477.37H142.245Z"
    fill="white"
  />
  <path
    d="M236.47 448.244C236.47 443.245 236.76 439.079 237.339 435.746C237.991 432.341 238.897 429.551 240.056 427.378C241.216 425.131 242.846 423.429 244.947 422.27C247.048 421.11 249.367 420.313 251.902 419.879C254.511 419.444 257.771 419.227 261.684 419.227C264.292 419.227 266.502 419.299 268.313 419.444C270.124 419.516 271.936 419.734 273.747 420.096C275.631 420.386 277.152 420.857 278.312 421.509C279.471 422.088 280.594 422.922 281.681 424.008C282.768 425.023 283.601 426.291 284.18 427.812C284.832 429.261 285.303 431.036 285.593 433.138C285.955 435.166 286.137 437.521 286.137 440.202C286.137 445.273 284.796 448.969 282.115 451.287C279.435 453.606 275.414 454.765 270.052 454.765H251.685C251.685 458.098 252.156 460.597 253.098 462.264C254.112 463.858 255.344 464.836 256.793 465.198C258.315 465.56 260.669 465.741 263.857 465.741C272.769 465.741 279.833 465.343 285.05 464.546V474.871C279.616 476.899 269.762 477.914 255.489 477.914C251.794 477.914 248.715 477.37 246.251 476.283C243.86 475.197 241.94 473.421 240.491 470.958C239.042 468.495 237.991 465.452 237.339 461.829C236.76 458.206 236.47 453.678 236.47 448.244ZM251.685 443.788H266.14C269.327 443.788 270.921 442.339 270.921 439.441C270.921 435.818 270.414 433.5 269.4 432.485C268.458 431.399 266.176 430.855 262.553 430.855C260.235 430.855 258.496 430.964 257.336 431.181C256.25 431.326 255.163 431.833 254.076 432.703C253.062 433.5 252.373 434.768 252.011 436.507C251.721 438.245 251.613 440.673 251.685 443.788Z"
    fill="white"
  />
  <path
    d="M294.439 477.37V419.661H307.263L309.654 426.943C315.088 421.726 320.594 419.118 326.173 419.118C329.289 419.118 331.426 419.335 332.585 419.77V434.442C330.557 434.224 327.767 434.116 324.217 434.116C320.812 434.116 317.95 434.587 315.631 435.528C313.385 436.398 311.393 438.064 309.654 440.528V477.37H294.439Z"
    fill="white"
  />
  <path
    d="M338.127 462.698V457.264C338.127 455.018 338.417 452.99 338.996 451.178C339.649 449.367 340.627 447.701 341.931 446.179C343.235 444.658 344.974 443.498 347.147 442.701C349.394 441.832 352.038 441.397 355.081 441.397C357.907 441.397 360.696 441.433 363.449 441.506C366.275 441.506 369.137 441.47 372.035 441.397C372.108 439.006 372.108 437.775 372.035 437.702C372.035 436.181 371.854 434.949 371.492 434.007C371.202 433.065 370.695 432.341 369.97 431.833C369.246 431.326 368.449 431 367.579 430.855C366.71 430.71 365.623 430.638 364.319 430.638C359.609 430.638 351.531 431.036 340.083 431.833V422.487C346.532 419.951 355.298 418.647 366.384 418.574C373.049 418.574 378.194 419.987 381.816 422.813C385.439 425.566 387.25 430.348 387.25 437.159V477.37H375.187L372.035 471.067C371.745 471.574 370.803 472.371 369.209 473.458C367.688 474.472 365.514 475.523 362.689 476.609C359.863 477.624 357.11 478.095 354.429 478.022C349.212 477.877 345.191 476.32 342.366 473.349C339.54 470.306 338.127 466.756 338.127 462.698ZM353.342 460.525C353.342 462.698 353.813 464.147 354.755 464.872C355.697 465.524 357.037 465.85 358.776 465.85C359.646 465.85 360.551 465.778 361.493 465.633C362.435 465.415 363.305 465.198 364.102 464.981C364.971 464.691 365.804 464.401 366.601 464.111C367.398 463.749 368.123 463.423 368.775 463.133C369.427 462.771 369.97 462.481 370.405 462.264C370.912 461.974 371.311 461.757 371.6 461.612C371.89 461.394 372.035 461.286 372.035 461.286V450.744L358.015 451.83C357.074 451.903 356.277 452.156 355.624 452.591C354.972 452.953 354.465 453.424 354.103 454.004C353.813 454.584 353.596 455.163 353.451 455.743C353.378 456.323 353.342 456.975 353.342 457.699V460.525Z"
    fill="white"
  />
  <path
    d="M0.749756 401.512V411.076C0.749756 411.583 0.858436 412.054 1.0758 412.488C1.29315 412.851 1.58297 413.141 1.94523 413.358C2.37995 413.503 2.8509 413.575 3.35807 413.575H14.7694C15.5664 413.575 16.146 413.358 16.5083 412.923C16.943 412.488 17.1604 411.873 17.1604 411.076V401.512C17.1604 399.628 16.3634 398.686 14.7694 398.686H3.35807C1.61919 398.686 0.749756 399.628 0.749756 401.512Z"
    fill="url(#paint9_linear_3_52)"
  />
  <defs>
    <linearGradient
      id="paint0_linear_3_52"
      x1="185.488"
      y1="0.97052"
      x2="185.488"
      y2="368.575"
      gradientUnits="userSpaceOnUse"
    >
      <stop stop-color="#8CF7D1" />
      <stop offset="0.5" stop-color="#36D7CC" />
      <stop offset="1" stop-color="#067AD2" />
    </linearGradient>
    <linearGradient
      id="paint1_linear_3_52"
      x1="184.535"
      y1="89.9365"
      x2="184.535"
      y2="299.669"
      gradientUnits="userSpaceOnUse"
    >
      <stop stop-color="#4CE0B9" />
      <stop offset="1" stop-color="#0C7FD5" />
      <stop offset="1" stop-color="#D9D9D9" stop-opacity="0" />
    </linearGradient>
    <linearGradient
      id="paint2_linear_3_52"
      x1="232.583"
      y1="84.5979"
      x2="232.583"
      y2="173.448"
      gradientUnits="userSpaceOnUse"
    >
      <stop stop-color="#5FFED2" />
      <stop offset="1" stop-color="#1D967B" />
    </linearGradient>
    <linearGradient
      id="paint3_linear_3_52"
      x1="182.492"
      y1="54.7217"
      x2="179.577"
      y2="88.0299"
      gradientUnits="userSpaceOnUse"
    >
      <stop stop-color="white" />
      <stop offset="1" stop-color="#3DCAC0" />
    </linearGradient>
    <linearGradient
      id="paint4_linear_3_52"
      x1="157.76"
      y1="161.892"
      x2="155.607"
      y2="186.8"
      gradientUnits="userSpaceOnUse"
    >
      <stop stop-color="white" />
      <stop offset="1" stop-color="#2DB0C7" />
    </linearGradient>
    <linearGradient
      id="paint5_linear_3_52"
      x1="216.104"
      y1="206.578"
      x2="213.897"
      y2="231.792"
      gradientUnits="userSpaceOnUse"
    >
      <stop stop-color="white" />
      <stop offset="1" stop-color="#1C97CF" />
    </linearGradient>
    <linearGradient
      id="paint6_linear_3_52"
      x1="196.982"
      y1="296.105"
      x2="194.068"
      y2="329.413"
      gradientUnits="userSpaceOnUse"
    >
      <stop stop-color="white" />
      <stop offset="1" stop-color="#0778D4" />
    </linearGradient>
    <linearGradient
      id="paint7_linear_3_52"
      x1="67.7109"
      y1="192.001"
      x2="64.7964"
      y2="225.309"
      gradientUnits="userSpaceOnUse"
    >
      <stop stop-color="white" />
      <stop offset="1" stop-color="#2ABFD6" />
    </linearGradient>
    <linearGradient
      id="paint8_linear_3_52"
      x1="309.094"
      y1="159.588"
      x2="306.18"
      y2="192.896"
      gradientUnits="userSpaceOnUse"
    >
      <stop stop-color="white" />
      <stop offset="1" stop-color="#27A7CA" />
    </linearGradient>
    <linearGradient
      id="paint9_linear_3_52"
      x1="8.95507"
      y1="398.686"
      x2="8.95507"
      y2="413.575"
      gradientUnits="userSpaceOnUse"
    >
      <stop stop-color="#82F3D1" />
      <stop offset="1" stop-color="#097FD2" />
    </linearGradient>
  </defs>
</svg>
